<svg class="animated" id="freepik_stories-webinar" xmlns="http://www.w3.org/2000/svg" viewBox="0 0 500 500" version="1.1" xmlns:xlink="http://www.w3.org/1999/xlink" xmlns:svgjs="http://svgjs.com/svgjs"><style>svg#freepik_stories-webinar:not(.animated) .animable {opacity: 0;}svg#freepik_stories-webinar.animated #freepik--background-complete--inject-34 {animation: 1s 1 forwards cubic-bezier(.36,-0.01,.5,1.38) slideUp;animation-delay: 0s;}svg#freepik_stories-webinar.animated #freepik--Shadows--inject-34 {animation: 1s 1 forwards cubic-bezier(.36,-0.01,.5,1.38) slideLeft;animation-delay: 0s;}svg#freepik_stories-webinar.animated #freepik--Plants--inject-34 {animation: 1s 1 forwards cubic-bezier(.36,-0.01,.5,1.38) slideRight;animation-delay: 0s;}svg#freepik_stories-webinar.animated #freepik--Desk--inject-34 {animation: 1s 1 forwards cubic-bezier(.36,-0.01,.5,1.38) zoomIn;animation-delay: 0s;}svg#freepik_stories-webinar.animated #freepik--speech-bubble--inject-34 {animation: 1s 1 forwards cubic-bezier(.36,-0.01,.5,1.38) slideDown;animation-delay: 0s;}svg#freepik_stories-webinar.animated #freepik--character-1--inject-34 {animation: 1s 1 forwards cubic-bezier(.36,-0.01,.5,1.38) zoomIn;animation-delay: 0s;}svg#freepik_stories-webinar.animated #freepik--character-2--inject-34 {animation: 1s 1 forwards cubic-bezier(.36,-0.01,.5,1.38) slideRight;animation-delay: 0s;}            @keyframes slideUp {                0% {                    opacity: 0;                    transform: translateY(30px);                }                100% {                    opacity: 1;                    transform: inherit;                }            }                    @keyframes slideLeft {                0% {                    opacity: 0;                    transform: translateX(-30px);                }                100% {                    opacity: 1;                    transform: translateX(0);                }            }                    @keyframes slideRight {                0% {                    opacity: 0;                    transform: translateX(30px);                }                100% {                    opacity: 1;                    transform: translateX(0);                }            }                    @keyframes zoomIn {                0% {                    opacity: 0;                    transform: scale(0.5);                }                100% {                    opacity: 1;                    transform: scale(1);                }            }                    @keyframes slideDown {                0% {                    opacity: 0;                    transform: translateY(-30px);                }                100% {                    opacity: 1;                    transform: translateY(0);                }            }        </style><g id="freepik--background-complete--inject-34" class="animable" style="transform-origin: 250px 228.865px;"><path d="M238.4,341.53H45.31a5.72,5.72,0,0,1-5.71-5.71V64.39a5.72,5.72,0,0,1,5.71-5.66H238.4a5.71,5.71,0,0,1,5.7,5.71h0V335.82A5.71,5.71,0,0,1,238.4,341.53ZM45.31,58.93a5.47,5.47,0,0,0-5.46,5.46V335.82a5.47,5.47,0,0,0,5.46,5.46H238.4a5.46,5.46,0,0,0,5.45-5.46V64.39a5.46,5.46,0,0,0-5.45-5.46Z" style="fill: rgb(230, 230, 230); transform-origin: 141.85px 200.13px;" id="elpilhde6q7g" class="animable"></path><path d="M454.7,341.53H261.6a5.71,5.71,0,0,1-5.7-5.71V64.39a5.71,5.71,0,0,1,5.7-5.66H454.7a5.71,5.71,0,0,1,5.7,5.66V335.82A5.71,5.71,0,0,1,454.7,341.53ZM261.6,58.93a5.46,5.46,0,0,0-5.45,5.46V335.82a5.46,5.46,0,0,0,5.45,5.46H454.7a5.48,5.48,0,0,0,5.47-5.46V64.39a5.48,5.48,0,0,0-5.47-5.46Z" style="fill: rgb(230, 230, 230); transform-origin: 358.15px 200.13px;" id="elzpkiodt5oca" class="animable"></path><rect x="53.79" y="392.21" width="41.21" height="0.25" style="fill: rgb(224, 224, 224); transform-origin: 74.395px 392.335px;" id="ela8cltt8dgd8" class="animable"></rect><rect x="137.67" y="390.21" width="41.33" height="0.25" style="fill: rgb(224, 224, 224); transform-origin: 158.335px 390.335px;" id="elmaiiai765rt" class="animable"></rect><rect x="222.78" y="390.21" width="10" height="0.25" style="fill: rgb(224, 224, 224); transform-origin: 227.78px 390.335px;" id="el73t8b0zwch3" class="animable"></rect><rect x="86.58" y="398.75" width="46.25" height="0.25" style="fill: rgb(224, 224, 224); transform-origin: 109.705px 398.875px;" id="el99y04e9fpob" class="animable"></rect><rect x="271.2" y="392.08" width="21.6" height="0.25" style="fill: rgb(224, 224, 224); transform-origin: 282px 392.205px;" id="elf5vkqrcr4ug" class="animable"></rect><rect x="301.7" y="392.08" width="27.93" height="0.25" style="fill: rgb(224, 224, 224); transform-origin: 315.665px 392.205px;" id="el503t2mzxtd4" class="animable"></rect><rect x="401.89" y="396.31" width="62.44" height="0.25" style="fill: rgb(224, 224, 224); transform-origin: 433.11px 396.435px;" id="eljzcknc2it6g" class="animable"></rect><rect y="382.4" width="500" height="0.25" style="fill: rgb(224, 224, 224); transform-origin: 250px 382.525px;" id="eluqovkowbt6" class="animable"></rect><path d="M169.82,289h19.43V277.84a9.72,9.72,0,0,0-9.72-9.72h0a9.72,9.72,0,0,0-9.71,9.72Z" style="fill: rgb(240, 240, 240); transform-origin: 179.535px 278.56px;" id="el76pifxsoegq" class="animable"></path><circle cx="179.65" cy="278.36" r="8.2" style="fill: rgb(255, 255, 255); transform-origin: 179.65px 278.36px;" id="elqo60daa6srn" class="animable"></circle><circle cx="179.77" cy="278.36" r="6.58" style="fill: rgb(235, 235, 235); transform-origin: 179.77px 278.36px;" id="elz5lzo7lobvl" class="animable"></circle><path d="M179,278.5a.71.71,0,1,0,1.41,0,.71.71,0,1,0-1.41,0Z" style="fill: rgb(250, 250, 250); transform-origin: 179.705px 278.5px;" id="el9lbtdjrk6m6" class="animable"></path><polygon points="179.79 278.76 182.8 275.93 182.5 275.62 179.78 278.19 174.89 273.87 174.61 274.19 179.79 278.76" style="fill: rgb(250, 250, 250); transform-origin: 178.705px 276.315px;" id="elgjtywgu5um" class="animable"></polygon><g id="eld9id2sck13"><circle cx="82.53" cy="188.49" r="22.91" style="fill: rgb(240, 240, 240); transform-origin: 82.53px 188.49px; transform: rotate(-45deg);" class="animable"></circle></g><path d="M82.6,211.91a23.43,23.43,0,1,1,0-46.85v1a22.4,22.4,0,0,0,0,44.79Z" style="fill: rgb(255, 255, 255); transform-origin: 70.6431px 188.485px;" id="elp1e0b10h3e" class="animable"></path><path d="M82.6,211.91v-1a22.4,22.4,0,0,0,0-44.79v-1a23.43,23.43,0,0,1,0,46.85Z" style="fill: rgb(255, 255, 255); transform-origin: 94.0731px 188.545px;" id="elamx5nohk0j7" class="animable"></path><path d="M94.57,188.49h-1c0-7.59-3.85-17.75-11.22-22.48l.56-.87C90.55,170.07,94.57,180.62,94.57,188.49Z" style="fill: rgb(255, 255, 255); transform-origin: 88.46px 176.815px;" id="el8x5rlr7tfx9" class="animable"></path><path d="M82.88,211.13l-.56-.87c7.37-4.72,11.22-14.88,11.22-22.47h1C94.57,195.66,90.55,206.21,82.88,211.13Z" style="fill: rgb(255, 255, 255); transform-origin: 88.4301px 199.46px;" id="el89dqr3ekc5r" class="animable"></path><path d="M71.66,188.48h-1c0-7.87,4-18.42,11.69-23.34l.56.87C75.51,170.73,71.66,180.89,71.66,188.48Z" style="fill: rgb(255, 255, 255); transform-origin: 76.785px 176.81px;" id="elu82qu4mxzxd" class="animable"></path><path d="M82.32,211.13c-7.67-4.93-11.69-15.47-11.69-23.35h1c0,7.6,3.85,17.75,11.22,22.48Z" style="fill: rgb(255, 255, 255); transform-origin: 76.74px 199.455px;" id="el2ihr2om2f1d" class="animable"></path><rect x="82.08" y="165.57" width="1.03" height="45.82" style="fill: rgb(255, 255, 255); transform-origin: 82.595px 188.48px;" id="el4m8pdqfnpy9" class="animable"></rect><rect x="63.21" y="175.76" width="38.78" height="1.03" style="fill: rgb(255, 255, 255); transform-origin: 82.6px 176.275px;" id="el0d4lmnzdexj" class="animable"></rect><rect x="59.7" y="188.36" width="45.8" height="1.03" style="fill: rgb(255, 255, 255); transform-origin: 82.6px 188.875px;" id="ellkmfyiin6la" class="animable"></rect><rect x="63.72" y="200.94" width="37.76" height="1.03" style="fill: rgb(255, 255, 255); transform-origin: 82.6px 201.455px;" id="el0n3shxr3rd8" class="animable"></rect><g id="el9l8l0jencrr"><rect x="352.44" y="33.17" width="5.57" height="159.45" style="fill: rgb(245, 245, 245); transform-origin: 355.225px 112.895px; transform: rotate(90deg);" class="animable"></rect></g><path d="M318,115.68H291.32v12.5h13.33a5.73,5.73,0,0,1,5.73-5.72H318Z" style="fill: rgb(224, 224, 224); transform-origin: 304.66px 121.93px;" id="elgnda5nzpqge" class="animable"></path><path d="M305.94,115.68H286.49v12.5h6.11a5.72,5.72,0,0,1,5.72-5.72h7.62Z" style="fill: rgb(245, 245, 245); transform-origin: 296.215px 121.93px;" id="elxvyrlzffndb" class="animable"></path><path d="M392.45,115.68h26.68v12.5H405.79a5.72,5.72,0,0,0-5.73-5.72h-7.61Z" style="fill: rgb(235, 235, 235); transform-origin: 405.79px 121.93px;" id="elxs1eet1ek0d" class="animable"></path><path d="M404.51,115.68H424v12.5h-6.11a5.72,5.72,0,0,0-5.72-5.72h-7.61Z" style="fill: rgb(245, 245, 245); transform-origin: 414.255px 121.93px;" id="elvyfplqcjlah" class="animable"></path><polygon points="375.48 99.13 384.29 83.95 382.94 83.95 373.53 99.13 375.48 99.13" style="fill: rgb(224, 224, 224); transform-origin: 378.91px 91.54px;" id="elkdwfv7xv2e" class="animable"></polygon><polygon points="337.33 99.07 328.63 83.89 329.98 83.89 339.29 99.07 337.33 99.07" style="fill: rgb(224, 224, 224); transform-origin: 333.96px 91.48px;" id="el846bqmpvsf" class="animable"></polygon><polygon points="337.68 99.07 338.13 100.09 339.43 100.09 339.02 99.07 337.68 99.07" style="fill: rgb(224, 224, 224); transform-origin: 338.555px 99.58px;" id="elvwnmhdczt58" class="animable"></polygon><polygon points="375.15 99.07 374.71 100.09 373.4 100.09 373.82 99.07 375.15 99.07" style="fill: rgb(224, 224, 224); transform-origin: 374.275px 99.58px;" id="elh7yqcgfeba" class="animable"></polygon><rect x="335.42" y="106.04" width="5.41" height="3.37" style="fill: rgb(224, 224, 224); transform-origin: 338.125px 107.725px;" id="elotwla0bk3jc" class="animable"></rect><rect x="372.14" y="106.04" width="5.41" height="3.37" style="fill: rgb(224, 224, 224); transform-origin: 374.845px 107.725px;" id="ela8qaoof00i" class="animable"></rect><path d="M379.44,107.53l-11.76,1.28a105.21,105.21,0,0,1-22.44,0l-11.76-1.28v-7.29L343,99a104.09,104.09,0,0,1,26.86,0l9.55,1.24Z" style="fill: rgb(235, 235, 235); transform-origin: 356.46px 103.77px;" id="elf15bxc7skym" class="animable"></path><path d="M340.31,104.09a2.18,2.18,0,1,1-2.18-2.18A2.18,2.18,0,0,1,340.31,104.09Z" style="fill: rgb(255, 255, 255); transform-origin: 338.13px 104.09px;" id="elrbu0vfy93l" class="animable"></path><circle cx="338.13" cy="104.11" r="1.3" style="fill: rgb(224, 224, 224); transform-origin: 338.13px 104.11px;" id="elj8w21jq5nre" class="animable"></circle><path d="M350.46,104.11a.69.69,0,0,1-.69.69.69.69,0,0,1,0-1.38A.69.69,0,0,1,350.46,104.11Z" style="fill: rgb(255, 255, 255); transform-origin: 349.77px 104.11px;" id="elnzcaqus147" class="animable"></path><path d="M352.92,104.11a.69.69,0,1,1-.69-.69A.69.69,0,0,1,352.92,104.11Z" style="fill: rgb(255, 255, 255); transform-origin: 352.23px 104.11px;" id="elbbi4cjjolwa" class="animable"></path><path d="M355.37,104.11a.69.69,0,1,1-.69-.69A.69.69,0,0,1,355.37,104.11Z" style="fill: rgb(255, 255, 255); transform-origin: 354.68px 104.11px;" id="eldtdcc8tmilf" class="animable"></path><path d="M357.83,104.11a.69.69,0,1,1-.69-.69A.69.69,0,0,1,357.83,104.11Z" style="fill: rgb(255, 255, 255); transform-origin: 357.14px 104.11px;" id="elppovt9alzzq" class="animable"></path><path d="M360.28,104.11a.69.69,0,1,1-.69-.69A.69.69,0,0,1,360.28,104.11Z" style="fill: rgb(255, 255, 255); transform-origin: 359.59px 104.11px;" id="elgtnffa6a73" class="animable"></path><path d="M362.74,104.11a.69.69,0,1,1-.69-.69A.69.69,0,0,1,362.74,104.11Z" style="fill: rgb(255, 255, 255); transform-origin: 362.05px 104.11px;" id="els676bldqo9s" class="animable"></path><path d="M365.19,104.11a.69.69,0,1,1-.68-.69A.68.68,0,0,1,365.19,104.11Z" style="fill: rgb(255, 255, 255); transform-origin: 364.5px 104.11px;" id="elpdhd1a6qjq" class="animable"></path><path d="M133.46,131.76v6A18,18,0,0,1,143.71,142l4.27-4.27A24,24,0,0,0,133.46,131.76Z" style="fill: rgb(245, 245, 245); transform-origin: 140.72px 136.88px;" id="elyrgi78l56dq" class="animable"></path><path d="M130.55,173.82A18.05,18.05,0,0,1,114,157.27h-6a24.08,24.08,0,0,0,22.59,22.59Z" style="fill: rgb(240, 240, 240); transform-origin: 119.295px 168.565px;" id="elxoe1pwtq42" class="animable"></path><path d="M114,154.35a18.09,18.09,0,0,1,16.56-16.55v-6A24.09,24.09,0,0,0,108,154.35Z" style="fill: rgb(224, 224, 224); transform-origin: 119.28px 143.075px;" id="el9ef6r24gwxj" class="animable"></path><path d="M150,139.84l-4.27,4.27a18.06,18.06,0,0,1-12.31,29.71v6a24.09,24.09,0,0,0,16.58-40Z" style="fill: rgb(224, 224, 224); transform-origin: 144.73px 159.82px;" id="el3og1jjnj7gn" class="animable"></path><g id="elq3b3l8e161"><rect x="54.85" y="271.78" width="222.05" height="110.25" rx="19.67" style="fill: rgb(224, 224, 224); transform-origin: 165.875px 326.905px; transform: rotate(180deg);" class="animable"></rect></g><g id="elskgrti1m238"><rect x="66.55" y="272.59" width="222.05" height="110.25" rx="19.67" style="fill: rgb(245, 245, 245); transform-origin: 177.575px 327.715px; transform: rotate(180deg);" class="animable"></rect></g><g id="eljn7qy8sf6e9"><path d="M76.73,283H277.11a0,0,0,0,1,0,0v27.39a13.74,13.74,0,0,1-13.74,13.74H90.47a13.74,13.74,0,0,1-13.74-13.74V283A0,0,0,0,1,76.73,283Z" style="fill: rgb(224, 224, 224); transform-origin: 176.92px 303.565px; transform: rotate(180deg);" class="animable"></path></g><g id="elpazczyfase"><path d="M90.47,329.68H263.38a13.74,13.74,0,0,1,13.74,13.74v27.39a0,0,0,0,1,0,0H76.73a0,0,0,0,1,0,0V343.42A13.74,13.74,0,0,1,90.47,329.68Z" style="fill: rgb(224, 224, 224); transform-origin: 176.925px 350.245px; transform: rotate(180deg);" class="animable"></path></g><rect x="129.95" y="290.95" width="28.4" height="33.44" style="fill: rgb(230, 230, 230); transform-origin: 144.15px 307.67px;" id="elzv9amhc24fa" class="animable"></rect><rect x="158.35" y="290.95" width="7.27" height="33.44" style="fill: rgb(245, 245, 245); transform-origin: 161.985px 307.67px;" id="elevlgxbfmnli" class="animable"></rect><rect x="122.5" y="285.79" width="21.33" height="38.6" style="fill: rgb(230, 230, 230); transform-origin: 133.165px 305.09px;" id="elmc1bw1cajij" class="animable"></rect><rect x="143.83" y="285.79" width="6.17" height="38.6" style="fill: rgb(245, 245, 245); transform-origin: 146.915px 305.09px;" id="el5qejvqtzig3" class="animable"></rect><rect x="119.56" y="290.95" width="17.99" height="33.44" style="fill: rgb(235, 235, 235); transform-origin: 128.555px 307.67px;" id="eljm3jrsyvfuo" class="animable"></rect><rect x="137.55" y="290.95" width="4.11" height="33.44" style="fill: rgb(245, 245, 245); transform-origin: 139.605px 307.67px;" id="el26t7j9semdu" class="animable"></rect><rect x="99.24" y="296.61" width="23.59" height="27.78" style="fill: rgb(230, 230, 230); transform-origin: 111.035px 310.5px;" id="eldvxuk1fkav" class="animable"></rect><rect x="122.83" y="296.61" width="6.04" height="27.78" style="fill: rgb(245, 245, 245); transform-origin: 125.85px 310.5px;" id="elt9sipf0b0ue" class="animable"></rect><rect x="93.05" y="292.32" width="17.72" height="32.07" style="fill: rgb(230, 230, 230); transform-origin: 101.91px 308.355px;" id="eliglip7icgl" class="animable"></rect><rect x="110.77" y="292.32" width="5.12" height="32.07" style="fill: rgb(245, 245, 245); transform-origin: 113.33px 308.355px;" id="elonwgo1vfxie" class="animable"></rect><rect x="88.34" y="296.61" width="17.22" height="27.78" style="fill: rgb(230, 230, 230); transform-origin: 96.95px 310.5px;" id="elvrmlfm5h7d" class="animable"></rect><rect x="105.56" y="296.61" width="3.41" height="27.78" style="fill: rgb(240, 240, 240); transform-origin: 107.265px 310.5px;" id="eluo8a77y9x5" class="animable"></rect><rect x="218.33" y="336.11" width="28.4" height="33.44" style="fill: rgb(230, 230, 230); transform-origin: 232.53px 352.83px;" id="el2mmsrdj40w7" class="animable"></rect><rect x="246.73" y="336.11" width="7.27" height="33.44" style="fill: rgb(245, 245, 245); transform-origin: 250.365px 352.83px;" id="elatnvhgqbzh" class="animable"></rect><rect x="210.88" y="330.95" width="21.33" height="38.6" style="fill: rgb(230, 230, 230); transform-origin: 221.545px 350.25px;" id="elfidx8wiaq6b" class="animable"></rect><rect x="232.21" y="330.95" width="6.17" height="38.6" style="fill: rgb(245, 245, 245); transform-origin: 235.295px 350.25px;" id="el4nne9ev69ux" class="animable"></rect><rect x="121.44" y="336.11" width="28.4" height="33.44" style="fill: rgb(230, 230, 230); transform-origin: 135.64px 352.83px;" id="el04jeaomd2xnn" class="animable"></rect><rect x="149.84" y="336.11" width="7.27" height="33.44" style="fill: rgb(245, 245, 245); transform-origin: 153.475px 352.83px;" id="eldxz90c717gl" class="animable"></rect><rect x="113.99" y="330.95" width="21.33" height="38.6" style="fill: rgb(230, 230, 230); transform-origin: 124.655px 350.25px;" id="eldclhr045bpo" class="animable"></rect><rect x="135.32" y="330.95" width="6.17" height="38.6" style="fill: rgb(245, 245, 245); transform-origin: 138.405px 350.25px;" id="eledabejy7msq" class="animable"></rect><rect x="207.94" y="336.11" width="17.99" height="33.44" style="fill: rgb(235, 235, 235); transform-origin: 216.935px 352.83px;" id="elyv39ype385c" class="animable"></rect><rect x="225.93" y="336.11" width="4.11" height="33.44" style="fill: rgb(245, 245, 245); transform-origin: 227.985px 352.83px;" id="elekstb3dkl1o" class="animable"></rect><rect x="187.62" y="341.76" width="23.59" height="27.78" style="fill: rgb(230, 230, 230); transform-origin: 199.415px 355.65px;" id="elk0fswqtkxdg" class="animable"></rect><rect x="211.21" y="341.76" width="6.04" height="27.78" style="fill: rgb(245, 245, 245); transform-origin: 214.23px 355.65px;" id="el04vuq06jvx15" class="animable"></rect><rect x="181.43" y="337.48" width="17.72" height="32.07" style="fill: rgb(230, 230, 230); transform-origin: 190.29px 353.515px;" id="elzlfge3zrit" class="animable"></rect><rect x="199.14" y="337.48" width="5.12" height="32.07" style="fill: rgb(245, 245, 245); transform-origin: 201.7px 353.515px;" id="elk2ak34aipw" class="animable"></rect><rect x="176.71" y="341.76" width="17.22" height="27.78" style="fill: rgb(230, 230, 230); transform-origin: 185.32px 355.65px;" id="elymwojmnoplo" class="animable"></rect><rect x="193.94" y="341.76" width="3.41" height="27.78" style="fill: rgb(240, 240, 240); transform-origin: 195.645px 355.65px;" id="elef73y6jnrgq" class="animable"></rect><path d="M443.89,256.93H332.38c0,5.58,3.22,10.17,7.31,10.42,12,.73,30.42,3.32,36.27,12.36,10.9,16.86,9.84,76.07-3.21,89.78-4.1,4.3-16,12.84-16,12.84h62.83s-11.15-8.71-15-12.84c-13-13.82-13.36-73-2.41-89.78,5.62-8.61,22.89-11.39,34.49-12.26C440.7,267.14,443.89,262.51,443.89,256.93Z" style="fill: rgb(245, 245, 245); transform-origin: 388.135px 319.63px;" id="elrtxgtcxwokl" class="animable"></path><path d="M346.2,267.9c11.32,1.24,24.89,4.29,29.76,11.81a33.77,33.77,0,0,1,3.68,8.71h18.73a34.26,34.26,0,0,1,3.75-8.71c4.88-7.48,18.57-10.56,29.68-11.81Z" style="fill: rgb(230, 230, 230); transform-origin: 389px 278.16px;" id="el7vjjzfz2fs" class="animable"></path><polygon points="396.39 257 394.88 233.37 416.86 233.37 418.37 257 396.39 257" style="fill: rgb(235, 235, 235); transform-origin: 406.625px 245.185px;" id="elqxmedjk458r" class="animable"></polygon><polygon points="396.39 257 394.88 233.37 393.69 233.37 395.21 257 396.39 257" style="fill: rgb(224, 224, 224); transform-origin: 395.04px 245.185px;" id="elilm06xru6p9" class="animable"></polygon><polygon points="398.48 254.59 397.27 235.78 414.77 235.78 415.98 254.59 398.48 254.59" style="fill: rgb(240, 240, 240); transform-origin: 406.625px 245.185px;" id="eld8tq2hrvxx" class="animable"></polygon><polygon points="399.82 253.04 398.81 237.32 413.43 237.32 414.44 253.04 399.82 253.04" style="fill: rgb(250, 250, 250); transform-origin: 406.625px 245.18px;" id="elumsdkvchfm" class="animable"></polygon><polygon points="389.26 256.93 367.18 256.93 369.63 218.74 391.71 218.74 389.26 256.93" style="fill: rgb(230, 230, 230); transform-origin: 379.445px 237.835px;" id="el6v9ns5ukr08" class="animable"></polygon><polygon points="389.26 256.93 390.31 256.93 392.76 218.74 391.71 218.74 389.26 256.93" style="fill: rgb(224, 224, 224); transform-origin: 391.01px 237.835px;" id="el6lxkjrglmyd" class="animable"></polygon><polygon points="387.26 253.03 369.68 253.03 371.63 222.63 389.21 222.63 387.26 253.03" style="fill: rgb(240, 240, 240); transform-origin: 379.445px 237.83px;" id="elv4vskura9o" class="animable"></polygon><polygon points="385.97 250.53 371.29 250.53 372.92 225.14 387.6 225.14 385.97 250.53" style="fill: rgb(250, 250, 250); transform-origin: 379.445px 237.835px;" id="elx55maem329" class="animable"></polygon><path d="M378.56,236.56h0a2.11,2.11,0,0,0,3.61,0h0a4.41,4.41,0,0,0,0-4.92h0a2.11,2.11,0,0,0-3.61,0h0A4.41,4.41,0,0,0,378.56,236.56Z" style="fill: rgb(235, 235, 235); transform-origin: 380.365px 234.1px;" id="el0gknguivdgw8" class="animable"></path><path d="M379.64,240.83h0a1.55,1.55,0,0,0-2.65,0h0c-1.18,1.61-.34,4.35,1.33,4.35h0C380,245.18,380.82,242.44,379.64,240.83Z" style="fill: rgb(240, 240, 240); transform-origin: 378.317px 242.632px;" id="el8o1o3debsib" class="animable"></path></g><g id="freepik--Shadows--inject-34" class="animable" style="transform-origin: 250px 410.07px;"><g id="freepik--Shadow--inject-214--inject-34" class="animable" style="transform-origin: 250px 410.07px;"><ellipse id="freepik--path--inject-214--inject-34" cx="250" cy="410.07" rx="193.89" ry="11.32" style="fill: rgb(245, 245, 245); transform-origin: 250px 410.07px;" class="animable"></ellipse></g></g><g id="freepik--Plants--inject-34" class="animable" style="transform-origin: 256.646px 314.785px;"><path d="M391.11,335.67c-10,7.71-12.89,24.6-13.4,36.5,0,1.09-1.73,1.09-1.69,0,.53-12.6,3.4-29.61,14.24-38,.86-.67,1.71.8.85,1.46Z" style="fill: rgb(38, 50, 56); transform-origin: 383.744px 353.493px;" id="el43umqukuf96" class="animable"></path><path d="M367.89,327c2.55-.29,4.7,2.32,5.81,4.23,5.75,9.95,3.53,25,2.44,35.65-.11,1.07-1.81,1.08-1.7,0,1.06-10.39,3-23.93-1.7-33.81-.81-1.69-2.53-4.64-4.85-4.37-1.08.12-1.07-1.57,0-1.7Z" style="fill: rgb(38, 50, 56); transform-origin: 372.285px 347.332px;" id="elbyxrt0zcgef" class="animable"></path><path d="M361.69,340.7c10.7-2.64,12,21.09,12.35,26.21.07,1.09-1.62,1.08-1.69,0-.43-6.93-.77-16.85-5.78-22.4-1-1.12-2.77-2.59-4.43-2.17-1.06.26-1.51-1.38-.45-1.64Z" style="fill: rgb(38, 50, 56); transform-origin: 367.564px 354.11px;" id="eleg9vjb7q7l" class="animable"></path><path d="M393.41,352.22c-8.85-6.56-11.73,10.66-12.22,15.63-.11,1.07-1.8,1.08-1.69,0,.55-5.63,1.41-15.84,7.91-18.2a7.57,7.57,0,0,1,6.85,1.11c.87.64,0,2.11-.85,1.46Z" style="fill: rgb(38, 50, 56); transform-origin: 387.058px 358.966px;" id="elx8q09a9vwpk" class="animable"></path><path d="M358.21,355.33a6.27,6.27,0,0,1,5.27-1.92c5.4.9,6.89,9,7.71,13.27.21,1.07-1.42,1.52-1.63.45-.71-3.64-4.11-16.72-10.15-10.61a.85.85,0,0,1-1.2-1.19Z" style="fill: rgb(38, 50, 56); transform-origin: 364.617px 360.555px;" id="elaekwhk4p3yw" class="animable"></path><path d="M390.08,410.82H364.49A20.71,20.71,0,0,1,357.14,395c0-7.26,4.08-29,4.08-29h32.13s4.08,21.77,4.08,29A20.71,20.71,0,0,1,390.08,410.82Z" style="fill: rgb(38, 50, 56); transform-origin: 377.285px 388.41px;" id="elmvtumbmzhv" class="animable"></path><path d="M394.16,360.57c-7.72,0-15.28-3.13-16.87-7s3.36-7,11.08-7a29.93,29.93,0,0,1,7.37.94,21.58,21.58,0,0,1,6.6-.94c7.72,0,15.27,3.13,16.87,7s-3.36,7-11.08,7Z" style="fill: rgb(64, 123, 255); transform-origin: 398.251px 353.569px;" id="elhn3xvhuwe0p" class="animable"></path><g id="elhmsi7xk1tsl"><path d="M394.16,360.57c-7.72,0-15.28-3.13-16.87-7s3.36-7,11.08-7a29.93,29.93,0,0,1,7.37.94,21.58,21.58,0,0,1,6.6-.94c7.72,0,15.27,3.13,16.87,7s-3.36,7-11.08,7Z" style="opacity: 0.1; transform-origin: 398.251px 353.569px;" class="animable"></path></g><path d="M343.79,345.61c-6.31,0-8.87-2.56-5.71-5.72s10.83-5.71,17.15-5.71a13.37,13.37,0,0,1,4.94.77,29.92,29.92,0,0,1,6.49-.77c6.31,0,8.87,2.56,5.71,5.71s-10.83,5.72-17.14,5.72Z" style="fill: rgb(64, 123, 255); transform-origin: 355.225px 339.891px;" id="elv4omb3m5gi" class="animable"></path><path d="M401.86,339.89c-7.95,0-17.6-3.22-21.58-7.19s-.75-7.19,7.2-7.19a38.07,38.07,0,0,1,8.16,1,16.9,16.9,0,0,1,6.22-1c7.94,0,17.6,3.22,21.57,7.19s.75,7.19-7.19,7.19Z" style="fill: rgb(64, 123, 255); transform-origin: 401.853px 332.697px;" id="el966q0oscqw4" class="animable"></path><g id="el8o6ouv38fpt"><path d="M401.86,339.89c-7.95,0-17.6-3.22-21.58-7.19s-.75-7.19,7.2-7.19a38.07,38.07,0,0,1,8.16,1,16.9,16.9,0,0,1,6.22-1c7.94,0,17.6,3.22,21.57,7.19s.75,7.19-7.19,7.19Z" style="fill: rgb(255, 255, 255); opacity: 0.2; transform-origin: 401.853px 332.697px;" class="animable"></path></g><path d="M357.7,330.61c-4,0-6.53-1.61-5.7-3.6s4.71-3.59,8.68-3.59a10.86,10.86,0,0,1,3.39.48,15.22,15.22,0,0,1,3.8-.48c4,0,6.52,1.61,5.7,3.59s-4.71,3.6-8.68,3.6Z" style="fill: rgb(64, 123, 255); transform-origin: 362.784px 327.014px;" id="elphte5mbutmk" class="animable"></path><g id="elyakcw8v9b4g"><path d="M357.7,330.61c-4,0-6.53-1.61-5.7-3.6s4.71-3.59,8.68-3.59a10.86,10.86,0,0,1,3.39.48,15.22,15.22,0,0,1,3.8-.48c4,0,6.52,1.61,5.7,3.59s-4.71,3.6-8.68,3.6Z" style="fill: rgb(255, 255, 255); opacity: 0.3; transform-origin: 362.784px 327.014px;" class="animable"></path></g><path d="M353.12,359.37c-4,0-7.86-1.61-8.68-3.59s1.73-3.6,5.7-3.6a15.22,15.22,0,0,1,3.8.49,10.84,10.84,0,0,1,3.39-.49c4,0,7.86,1.61,8.68,3.6s-1.73,3.59-5.7,3.59Z" style="fill: rgb(64, 123, 255); transform-origin: 355.225px 355.774px;" id="elrmgnqivubcg" class="animable"></path><g id="eleazqy2ltnen"><path d="M353.12,359.37c-4,0-7.86-1.61-8.68-3.59s1.73-3.6,5.7-3.6a15.22,15.22,0,0,1,3.8.49,10.84,10.84,0,0,1,3.39-.49c4,0,7.86,1.61,8.68,3.6s-1.73,3.59-5.7,3.59Z" style="opacity: 0.2; transform-origin: 355.225px 355.774px;" class="animable"></path></g><path d="M360.49,370c.43-2.44.73-4,.73-4h32.13s.3,1.59.73,4Z" style="fill: rgb(64, 123, 255); transform-origin: 377.285px 368px;" id="elxag6mr1xwk" class="animable"></path><path d="M359.09,336.34s-8.81,2.94-11.6,7.78C347.49,344.12,347.93,337.07,359.09,336.34Z" style="fill: rgb(250, 250, 250); transform-origin: 353.29px 340.23px;" id="el5b62ddbnfa5" class="animable"></path><path d="M363.24,324.81a13,13,0,0,0-3.69,3.18A4.5,4.5,0,0,1,363.24,324.81Z" style="fill: rgb(250, 250, 250); transform-origin: 361.395px 326.4px;" id="elob9sotmbu97" class="animable"></path><path d="M397.43,328s9.55,3.5,15.43,10.11A19.84,19.84,0,0,0,397.43,328Z" style="fill: rgb(250, 250, 250); transform-origin: 405.145px 333.055px;" id="el7ouimj0v6f7" class="animable"></path><path d="M397.43,349.26a24,24,0,0,1,10,7.79S405.66,350.43,397.43,349.26Z" style="fill: rgb(230, 230, 230); transform-origin: 402.43px 353.155px;" id="el9aiqqwkp7if" class="animable"></path><path d="M354.09,354.11a4.7,4.7,0,0,1,2.5,3.82A8.43,8.43,0,0,1,354.09,354.11Z" style="fill: rgb(250, 250, 250); transform-origin: 355.34px 356.02px;" id="elsvjc2dphd99" class="animable"></path><path d="M107.55,221a3.36,3.36,0,0,1,3.57-1.78,3.53,3.53,0,0,1,2.66,3.09,3,3,0,0,1,3.4-.09,3.38,3.38,0,0,1,1.36,3.28,2.51,2.51,0,0,1,3.63.74,2.81,2.81,0,0,1-1.11,3.72,1.8,1.8,0,0,1-.09,3.58,1.94,1.94,0,0,1,1.78,1.7,2,2,0,0,1-1.34,2.11,1.63,1.63,0,0,1,.39,2.52,1.47,1.47,0,0,1-2.32-.73.48.48,0,0,1-.76.12.54.54,0,0,1,.15-.8.9.9,0,0,1-1.54-.39c.3,1.6-1.61,3.12-3,2.35a1.36,1.36,0,0,1-.89,1.82,3,3,0,0,1-2.16-.42,4.77,4.77,0,0,0-2.12-.71,6.5,6.5,0,0,0-1.89.52,5.71,5.71,0,0,1-5.78-1.52,2.45,2.45,0,0,1-4.11-.63A1.85,1.85,0,0,1,95.78,241,1.82,1.82,0,0,1,94,239.68c0,.35,0,.7-.05,1.06-1.43.34-2.85-1.52-2.24-2.93a2.25,2.25,0,0,1-2.13-1.95,2.32,2.32,0,0,1,1.59-2.45,4.33,4.33,0,0,1-.08-8.22,2.06,2.06,0,0,1,2,.27,1.25,1.25,0,0,1,0,1.87,4,4,0,0,1,1.7-4.47,3.53,3.53,0,0,1,4.46.95,2.24,2.24,0,0,1,0-2.47,2,2,0,0,1,2.23-.75,2.23,2.23,0,0,1,2.41-1.83,2.33,2.33,0,0,1,1.82,2.49,1.13,1.13,0,0,1,2-.39C108.34,220.69,107.55,221,107.55,221Z" style="fill: rgb(64, 123, 255); transform-origin: 105.462px 230.52px;" id="el6mhzqwen24" class="animable"></path><g id="elt0shmvx9gyi"><g style="opacity: 0.4; transform-origin: 106.062px 227.41px;" class="animable"><path d="M107.15,231.71a2,2,0,0,1,1.53-.37,1.41,1.41,0,0,1,1.12,1,1.09,1.09,0,0,1-.75,1.26c-.64.16-1.28-.37-1.93-.28a4.31,4.31,0,0,0-.67.21,3.33,3.33,0,0,1-2.64-.94,3,3,0,0,1-.73-.7,1,1,0,0,1-.08-1,1.28,1.28,0,0,1,1.28-.42,5.14,5.14,0,0,1,2.6,1.09c0-.15,0-.3-.08-.45Z" style="fill: rgb(250, 250, 250); transform-origin: 106.362px 232.032px;" id="eln7x0c4nxvk" class="animable"></path><path d="M93.56,230.9a2.69,2.69,0,0,1,.82-.43.75.75,0,0,1,.61,1.36,2.46,2.46,0,0,1-1.19.41c-.43.06-1,.08-1.19-.3a.75.75,0,0,1,.2-.86,2.26,2.26,0,0,1,.85-.42Z" style="fill: rgb(250, 250, 250); transform-origin: 93.9544px 231.354px;" id="el742c619s9ov" class="animable"></path><path d="M115,223.84a3,3,0,0,1,1.74,2.07c.06.28,0,.63-.19.78a.8.8,0,0,1-.59,0l-2.49-.59a3.43,3.43,0,0,1,1.12.59,1.22,1.22,0,0,1,.43,1.14,1.16,1.16,0,0,1-1.15.78,2.5,2.5,0,0,1-1.37-.55,1.76,1.76,0,0,1-.87-1.27c0-.54.67-1,1.08-.69a9.22,9.22,0,0,1-2.67-1.21,2.48,2.48,0,0,1-.78-.73,1,1,0,0,1-.07-1c.85-1.55,1.92.72,2.44.92C112.64,224.46,113.76,223.31,115,223.84Z" style="fill: rgb(250, 250, 250); transform-origin: 112.925px 225.616px;" id="elvimht1lizll" class="animable"></path><path d="M118.89,230.43a.85.85,0,0,1-.22.86.53.53,0,0,1-.8-.16,2.77,2.77,0,0,1,1.5.84c.34.47.26,1.28-.29,1.46a1.32,1.32,0,0,1-1-.23,18.28,18.28,0,0,1-2.56-1.69c.24.57-.35,1.22-1,1.27a3,3,0,0,1-1.73-.6c-.65-.4-1.39-1-1.22-1.75a1.27,1.27,0,0,1,1.61-.74,3.66,3.66,0,0,1,1.55,1.19c-.34-.5.15-1.26.76-1.34a1.84,1.84,0,0,1,1.56.72c-.69-.38-.85-1.37.08-1.49C117.72,228.7,118.74,229.93,118.89,230.43Z" style="fill: rgb(250, 250, 250); transform-origin: 115.559px 231.108px;" id="elkjqiqsywaua" class="animable"></path><path d="M99.91,228.21a1,1,0,1,1,.5,1.92,1.6,1.6,0,0,1,1.06.55.86.86,0,0,1,.22.62.76.76,0,0,1-.75.57,2.2,2.2,0,0,1-1-.27,1.84,1.84,0,0,1,1,.27.62.62,0,0,1,.14.88.83.83,0,0,1-.8.09,3.91,3.91,0,0,1-1.62-.92,1.61,1.61,0,0,1-1.37.58.94.94,0,0,1-.78-1.12,1,1,0,0,1,.84-.61,2.66,2.66,0,0,1,1.08.17,2,2,0,0,1-.86-1c-.13-.42.15-1,.59-.94s.74.7,1.13.94C99.76,229.54,98.86,228.6,99.91,228.21Z" style="fill: rgb(250, 250, 250); transform-origin: 99.0908px 230.521px;" id="el5ca74uizye8" class="animable"></path><path d="M108.77,226.16a2,2,0,0,1,.71,1.8,2.07,2.07,0,0,1-1.06,1.84,1.7,1.7,0,0,1-2.19-1.32,2.4,2.4,0,0,1,1.34-2.4A1.31,1.31,0,0,1,108.77,226.16Z" style="fill: rgb(250, 250, 250); transform-origin: 107.857px 227.926px;" id="el4gyumfefinb" class="animable"></path><path d="M102.49,225.36l-.23.2a1.12,1.12,0,1,1,0,1.4,1.68,1.68,0,0,1-2-.37,1.28,1.28,0,0,1,.27-1.87,1,1,0,0,1,1.5.89l.27-.3Z" style="fill: rgb(250, 250, 250); transform-origin: 102.112px 225.983px;" id="elxbzgmbzch1g" class="animable"></path><path d="M95.57,226.48a3.68,3.68,0,0,1,1.07,1.5,1.24,1.24,0,0,1-.71,1.53c-.6.15-1.17-.35-1.52-.86a1.87,1.87,0,0,1-.36-1.58c.17-.53.94-.84,1.32-.43Z" style="fill: rgb(250, 250, 250); transform-origin: 95.3518px 227.994px;" id="elrgboi19eiy" class="animable"></path><path d="M105.55,222.84a1,1,0,0,1,1.41-.39,1.25,1.25,0,0,1,.44,1.47,1.57,1.57,0,0,1-1.28.92c-.68.08-1.49-.47-1.33-1.14a1.49,1.49,0,0,1-1.31.49,3.53,3.53,0,0,1-1.35-.51c-.57-.33-1.18-.84-1.12-1.49a1.16,1.16,0,0,1,1.07-1,2,2,0,0,1,1.44.54,11.88,11.88,0,0,0,.92.83,1.15,1.15,0,0,0,1.16.17Z" style="fill: rgb(250, 250, 250); transform-origin: 104.245px 223.018px;" id="elafn5yt3bjbv" class="animable"></path></g></g><polygon points="97.02 253.73 114.19 253.73 115.87 236.43 95.34 236.43 97.02 253.73" style="fill: rgb(64, 123, 255); transform-origin: 105.605px 245.08px;" id="elx1ditlmootn" class="animable"></polygon><g id="elurlpid4fjc"><polygon points="97.02 253.73 114.19 253.73 115.87 236.43 95.34 236.43 97.02 253.73" style="opacity: 0.3; transform-origin: 105.605px 245.08px;" class="animable"></polygon></g><polygon points="94.01 237.32 117.37 237.32 117.79 235.02 93.59 235.02 94.01 237.32" style="fill: rgb(250, 250, 250); transform-origin: 105.69px 236.17px;" id="eln6i6jaquj3" class="animable"></polygon></g><g id="freepik--Desk--inject-34" class="animable" style="transform-origin: 197px 331.855px;"><path d="M123.31,264.58h7.52l.22,144.06a2.74,2.74,0,0,1-2.73,2.74h0a2.73,2.73,0,0,1-2.73-2.7Z" style="fill: rgb(38, 50, 56); transform-origin: 127.18px 337.98px;" id="el0rin4bkyx0z" class="animable"></path><g id="elp25rbt91lid"><path d="M123.31,264.58h7.52l.22,144.06a2.74,2.74,0,0,1-2.73,2.74h0a2.73,2.73,0,0,1-2.73-2.7Z" style="fill: rgb(255, 255, 255); opacity: 0.2; transform-origin: 127.18px 337.98px;" class="animable"></path></g><path d="M82.18,264.58h7.53l.21,144.06a2.73,2.73,0,0,1-2.73,2.74h0a2.73,2.73,0,0,1-2.73-2.7Z" style="fill: rgb(38, 50, 56); transform-origin: 86.05px 337.98px;" id="elzuyu3mes9e" class="animable"></path><g id="el1uu6y78zog3"><path d="M82.18,264.58h7.53l.21,144.06a2.73,2.73,0,0,1-2.73,2.74h0a2.73,2.73,0,0,1-2.73-2.7Z" style="fill: rgb(255, 255, 255); opacity: 0.2; transform-origin: 86.05px 337.98px;" class="animable"></path></g><path d="M302.19,264.58h7.53l.21,144.06a2.73,2.73,0,0,1-2.73,2.74h0a2.73,2.73,0,0,1-2.73-2.7Z" style="fill: rgb(38, 50, 56); transform-origin: 306.06px 337.98px;" id="elsad27ryx3ob" class="animable"></path><g id="elvntsqwyxz5b"><path d="M302.19,264.58h7.53l.21,144.06a2.73,2.73,0,0,1-2.73,2.74h0a2.73,2.73,0,0,1-2.73-2.7Z" style="fill: rgb(255, 255, 255); opacity: 0.2; transform-origin: 306.06px 337.98px;" class="animable"></path></g><path d="M261.07,264.58h7.52l.22,144.06a2.74,2.74,0,0,1-2.73,2.74h0a2.74,2.74,0,0,1-2.74-2.7Z" style="fill: rgb(38, 50, 56); transform-origin: 264.94px 337.98px;" id="elmg2cbcb1c8" class="animable"></path><g id="el1y3lcupbvmt"><path d="M261.07,264.58h7.52l.22,144.06a2.74,2.74,0,0,1-2.73,2.74h0a2.74,2.74,0,0,1-2.74-2.7Z" style="fill: rgb(255, 255, 255); opacity: 0.2; transform-origin: 264.94px 337.98px;" class="animable"></path></g><polygon points="82.48 291.58 309.01 289.88 309.01 264.58 82.43 264.58 82.48 291.58" style="fill: rgb(64, 123, 255); transform-origin: 195.72px 278.08px;" id="eluomhpujpa7d" class="animable"></polygon><g id="el2mcg9fse2c3"><polygon points="123.31 264.77 123.73 291.26 82.48 291.58 82.43 264.58 123.31 264.77" style="opacity: 0.3; transform-origin: 103.08px 278.08px;" class="animable"></polygon></g><path d="M317.83,258.51h0c0-3.41-1.27-6.17-2.83-6.18H79c-1.56,0-2.83,2.77-2.83,6.18h0c0,3.4,1.27,6.16,2.83,6.18H315C316.56,264.67,317.83,261.91,317.83,258.51Z" style="fill: rgb(38, 50, 56); transform-origin: 197px 258.51px;" id="el95z9nc59g8c" class="animable"></path><g id="el5ao1ea73pd6"><path d="M317.83,258.51h0c0-3.41-1.27-6.17-2.83-6.18H79c-1.56,0-2.83,2.77-2.83,6.18h0c0,3.4,1.27,6.16,2.83,6.18H315C316.56,264.67,317.83,261.91,317.83,258.51Z" style="fill: rgb(255, 255, 255); opacity: 0.1; transform-origin: 197px 258.51px;" class="animable"></path></g><g id="elcbf9t065qye"><path d="M137.09,258.51h0c0-3.41-1.27-6.17-2.84-6.18H79c-1.56,0-2.83,2.77-2.83,6.18h0c0,3.4,1.27,6.16,2.83,6.18h55.24C135.82,264.67,137.08,261.91,137.09,258.51Z" style="opacity: 0.3; transform-origin: 106.63px 258.51px;" class="animable"></path></g></g><g id="freepik--speech-bubble--inject-34" class="animable" style="transform-origin: 249.77px 109.41px;"><path d="M231.08,135.57a2.73,2.73,0,0,1-2.73-2.73v-6.73H227a3.51,3.51,0,0,1-3.51-3.51V90.73a3.51,3.51,0,0,1,3.5-3.49h49.74a3.5,3.5,0,0,1,3.5,3.5V122.6a3.51,3.51,0,0,1-3.51,3.51h-32.5L232.72,135A2.7,2.7,0,0,1,231.08,135.57ZM227,88.24a2.51,2.51,0,0,0-2.5,2.49V122.6a2.52,2.52,0,0,0,2.51,2.51h2.32v7.73a1.73,1.73,0,0,0,1.73,1.73,1.77,1.77,0,0,0,1-.34l11.79-9.12h32.84a2.52,2.52,0,0,0,2.51-2.51V90.74a2.5,2.5,0,0,0-2.5-2.5H227Z" style="fill: rgb(64, 123, 255); transform-origin: 251.86px 111.405px;" id="el2v3g6es8i8l" class="animable"></path><rect x="242.98" y="83.26" width="6.23" height="0.76" style="fill: rgb(64, 123, 255); transform-origin: 246.095px 83.64px;" id="elm00ohopue9" class="animable"></rect><path d="M220.08,92.24h-.77V88.48a5.24,5.24,0,0,1,5.24-5.23h13.89V84H224.55a4.47,4.47,0,0,0-4.47,4.47Z" style="fill: rgb(64, 123, 255); transform-origin: 228.875px 87.745px;" id="el4pguuk3my47" class="animable"></path><circle cx="240.65" cy="106.11" r="3.3" style="fill: rgb(64, 123, 255); transform-origin: 240.65px 106.11px;" id="elk0rrm14t19k" class="animable"></circle><path d="M255.08,106.11a3.31,3.31,0,1,1-3.31-3.3A3.31,3.31,0,0,1,255.08,106.11Z" style="fill: rgb(64, 123, 255); transform-origin: 251.77px 106.12px;" id="el79p11sfsxx9" class="animable"></path><circle cx="262.9" cy="106.11" r="3.3" style="fill: rgb(64, 123, 255); transform-origin: 262.9px 106.11px;" id="el4ns3ddwh8e8" class="animable"></circle></g><g id="freepik--character-1--inject-34" class="animable" style="transform-origin: 205.459px 181.093px;"><path d="M142,186.47l4-.19,5.57,61.57h-4.21c-2.11-.2-2.6-2.56-3.19-7l-3.9-43C139.29,187.66,141,186.47,142,186.47Z" style="fill: rgb(64, 123, 255); transform-origin: 145.774px 217.065px;" id="elqge1o78xqma" class="animable"></path><g id="elgmsfg9ewt6n"><path d="M142,186.47l4-.19,5.57,61.57h-4.21c-2.11-.2-2.6-2.56-3.19-7l-3.9-43C139.29,187.66,141,186.47,142,186.47Z" style="opacity: 0.3; transform-origin: 145.774px 217.065px;" class="animable"></path></g><path d="M148.29,247.85h83.44a1.63,1.63,0,0,0,1.49-1.93L228,188.21a2,2,0,0,0-1.85-1.93H142.71a1.63,1.63,0,0,0-1.49,1.93l5.22,57.71A2,2,0,0,0,148.29,247.85Z" style="fill: rgb(64, 123, 255); transform-origin: 187.22px 217.065px;" id="eloxuvbitu10t" class="animable"></path><polygon points="151.49 240.56 227.27 240.56 223.07 192.52 147.29 192.52 151.49 240.56" style="fill: rgb(64, 123, 255); transform-origin: 187.28px 216.54px;" id="elnq181wobhjb" class="animable"></polygon><path d="M152.53,244.32h74.68a3.46,3.46,0,0,0,3.5-3.84l-4.18-47.74a4.27,4.27,0,0,0-4.17-3.83H147.68a3.47,3.47,0,0,0-3.5,3.83l4.18,47.74A4.27,4.27,0,0,0,152.53,244.32Z" style="fill: rgb(38, 50, 56); transform-origin: 187.446px 216.615px;" id="elb00ljced07i" class="animable"></path><polygon points="151.49 240.56 227.27 240.56 223.07 192.52 147.29 192.52 151.49 240.56" style="fill: rgb(64, 123, 255); transform-origin: 187.28px 216.54px;" id="el0m8gh8fp2hcg" class="animable"></polygon><g id="elh3p9fg5d6wa"><polygon points="151.49 240.56 227.27 240.56 223.07 192.52 147.29 192.52 151.49 240.56" style="fill: rgb(255, 255, 255); opacity: 0.4; transform-origin: 187.28px 216.54px;" class="animable"></polygon></g><g id="elfzmem2plus"><polygon points="173.29 188.93 158.49 244.3 163.47 244.3 178.11 188.93 173.29 188.93" style="fill: rgb(255, 255, 255); opacity: 0.1; isolation: isolate; transform-origin: 168.3px 216.615px;" class="animable"></polygon></g><g id="el1h4e92hd62g"><polygon points="180.98 188.93 166.18 244.3 176.05 244.3 190.69 188.93 180.98 188.93" style="fill: rgb(255, 255, 255); opacity: 0.1; isolation: isolate; transform-origin: 178.435px 216.615px;" class="animable"></polygon></g><path d="M158.21,206.85a3.33,3.33,0,0,1-3.37,3.84,4.47,4.47,0,0,1-4.31-3.84A3.33,3.33,0,0,1,153.9,203,4.47,4.47,0,0,1,158.21,206.85Z" style="fill: rgb(64, 123, 255); transform-origin: 154.369px 206.845px;" id="el075aqqzfy12h" class="animable"></path><g id="elvz142qkn7j"><path d="M158.21,206.85a3.33,3.33,0,0,1-3.37,3.84,4.47,4.47,0,0,1-4.31-3.84A3.33,3.33,0,0,1,153.9,203,4.47,4.47,0,0,1,158.21,206.85Z" style="opacity: 0.3; transform-origin: 154.369px 206.845px;" class="animable"></path></g><path d="M154.84,210.69A3.46,3.46,0,0,0,157,210l-.36-1.2a1.1,1.1,0,0,0-1-.79h-.46l-.06-.5a1.42,1.42,0,0,0,.67-1.47,1.78,1.78,0,0,0-1.64-1.61,1.33,1.33,0,0,0-1.24,1.61,1.88,1.88,0,0,0,1,1.47l.06.5h-.46a.82.82,0,0,0-.84.79l-.07,1.2A4.29,4.29,0,0,0,154.84,210.69Z" style="fill: rgb(255, 255, 255); transform-origin: 154.8px 207.561px;" id="elobf6w2fq0l" class="animable"></path><path d="M161,206.12h15.1c.7,0,.56-1.08-.13-1.08H160.81c-.69,0-.56,1.08.14,1.08Z" style="fill: rgb(255, 255, 255); transform-origin: 168.457px 205.58px;" id="elucjhin12zk" class="animable"></path><path d="M161.26,208.66h19.9c.46,0,.37-.72-.09-.72h-19.9c-.46,0-.38.72.09.72Z" style="fill: rgb(255, 255, 255); transform-origin: 171.163px 208.3px;" id="elk29k5bninh" class="animable"></path><path d="M184.9,208.3a.72.72,0,0,1-.74.84,1,1,0,0,1-.95-.84.73.73,0,0,1,.74-.85A1,1,0,0,1,184.9,208.3Z" style="fill: rgb(38, 50, 56); transform-origin: 184.055px 208.295px;" id="el6zb5tu86wz" class="animable"></path><g id="elyw6sv1zojqr"><path d="M184.9,208.3a.72.72,0,0,1-.74.84,1,1,0,0,1-.95-.84.73.73,0,0,1,.74-.85A1,1,0,0,1,184.9,208.3Z" style="fill: rgb(255, 255, 255); opacity: 0.5; transform-origin: 184.055px 208.295px;" class="animable"></path></g><polygon points="147.29 192.52 147.66 196.82 223.44 196.82 223.07 192.52 147.29 192.52" style="fill: rgb(64, 123, 255); transform-origin: 185.365px 194.67px;" id="elxu3u6om0fzl" class="animable"></polygon><path d="M150.77,194.43a.79.79,0,0,1-.8.87,1,1,0,0,1-.94-.87.78.78,0,0,1,.79-.86A1,1,0,0,1,150.77,194.43Z" style="fill: rgb(255, 255, 255); transform-origin: 149.9px 194.435px;" id="el9bx0h7gpdhd" class="animable"></path><path d="M153.05,194.43a.78.78,0,0,1-.79.87,1,1,0,0,1-.94-.87.78.78,0,0,1,.79-.86A1,1,0,0,1,153.05,194.43Z" style="fill: rgb(255, 255, 255); transform-origin: 152.186px 194.435px;" id="elf7j2ppgb9h" class="animable"></path><path d="M155.34,194.43a.79.79,0,0,1-.79.87,1,1,0,0,1-1-.87.78.78,0,0,1,.79-.86A1,1,0,0,1,155.34,194.43Z" style="fill: rgb(255, 255, 255); transform-origin: 154.445px 194.435px;" id="elhkef9g8pv7" class="animable"></path><rect x="145.72" y="248.02" width="88.68" height="4.7" rx="1.81" style="fill: rgb(64, 123, 255); transform-origin: 190.06px 250.37px;" id="el2xk8b0q23kv" class="animable"></rect><g id="el13ncucs48v2i"><rect x="145.72" y="248.02" width="88.68" height="4.7" rx="1.81" style="opacity: 0.3; transform-origin: 190.06px 250.37px;" class="animable"></rect></g><path d="M179.47,248h87.95a0,0,0,0,1,0,0v1.07a3.62,3.62,0,0,1-3.62,3.62h-80.7a3.62,3.62,0,0,1-3.62-3.62V248A0,0,0,0,1,179.47,248Z" style="fill: rgb(64, 123, 255); transform-origin: 223.445px 250.345px;" id="elcexvd4zu40n" class="animable"></path><g id="elmmc24w9adps"><path d="M179.47,248h87.95a0,0,0,0,1,0,0v1.07a3.62,3.62,0,0,1-3.62,3.62h-80.7a3.62,3.62,0,0,1-3.62-3.62V248A0,0,0,0,1,179.47,248Z" style="fill: rgb(255, 255, 255); opacity: 0.4; transform-origin: 223.445px 250.345px;" class="animable"></path></g><g id="eligna7m2520r"><path d="M219.1,248.15a2.36,2.36,0,0,0,2.35,2.35h10.76a2.35,2.35,0,0,0,2.35-2.35Z" style="opacity: 0.3; transform-origin: 226.83px 249.325px;" class="animable"></path></g><polygon points="227.27 240.67 151.55 240.67 151.14 235.99 226.86 235.99 227.27 240.67" style="fill: rgb(64, 123, 255); transform-origin: 189.205px 238.33px;" id="el4bsqx9hxhp" class="animable"></polygon><polygon points="217.12 238.63 164.52 238.63 164.49 238.21 217.09 238.21 217.12 238.63" style="fill: rgb(255, 255, 255); transform-origin: 190.805px 238.42px;" id="elny52uy5fs9p" class="animable"></polygon><path d="M218.61,238.65c0,.2-.11.36-.41.36a.75.75,0,0,1-.43-.13l.08-.16a.52.52,0,0,0,.33.11c.15,0,.23-.06.22-.17s-.08-.17-.31-.17h-.27v-.6h.65v.17H218v.26h.11C218.45,238.32,218.59,238.46,218.61,238.65Z" style="fill: rgb(255, 255, 255); transform-origin: 218.19px 238.45px;" id="el9x75bdyvd8m" class="animable"></path><path d="M218.68,238.27a.12.12,0,0,1,.12-.13.13.13,0,0,1,.14.13.11.11,0,0,1-.11.13A.14.14,0,0,1,218.68,238.27Zm.06.6a.11.11,0,0,1,.12-.13.14.14,0,0,1,.14.13.12.12,0,0,1-.12.13A.13.13,0,0,1,218.74,238.87Z" style="fill: rgb(255, 255, 255); transform-origin: 218.84px 238.57px;" id="elshdqgj4pgi" class="animable"></path><path d="M219.09,238.44c0-.36.15-.57.41-.57s.48.21.52.57-.15.57-.42.57A.55.55,0,0,1,219.09,238.44Zm.72,0c0-.27-.14-.39-.29-.39s-.25.12-.22.39.14.39.29.39S219.83,238.71,219.81,238.44Z" style="fill: rgb(255, 255, 255); transform-origin: 219.557px 238.44px;" id="elrshc38f111g" class="animable"></path><path d="M220.15,238.44c0-.36.15-.57.42-.57a.55.55,0,0,1,.51.57c0,.36-.15.57-.41.57S220.19,238.8,220.15,238.44Zm.72,0c0-.27-.14-.39-.29-.39s-.24.12-.22.39.14.39.29.39S220.89,238.71,220.87,238.44Z" style="fill: rgb(255, 255, 255); transform-origin: 220.615px 238.44px;" id="eli80mtx3m98" class="animable"></path><path d="M153.9,238.82l0,.17h-.82v-.13l.4-.42a.3.3,0,0,0,.11-.23c0-.1-.08-.16-.22-.16a.29.29,0,0,0-.25.12l-.15-.12a.46.46,0,0,1,.4-.18c.24,0,.41.12.42.32a.41.41,0,0,1-.15.35l-.27.28Z" style="fill: rgb(255, 255, 255); transform-origin: 153.435px 238.429px;" id="el9jv1ftc8tyb" class="animable"></path><path d="M154,238.27a.11.11,0,0,1,.11-.13.14.14,0,0,1,.15.13.12.12,0,0,1-.12.13A.13.13,0,0,1,154,238.27Zm.05.6a.11.11,0,0,1,.12-.13.14.14,0,0,1,.14.13.12.12,0,0,1-.12.13A.14.14,0,0,1,154,238.87Z" style="fill: rgb(255, 255, 255); transform-origin: 154.154px 238.574px;" id="elmywjl251g7" class="animable"></path><path d="M155.2,238.65c0,.2-.11.36-.41.36a.75.75,0,0,1-.43-.13l.08-.16a.52.52,0,0,0,.33.11c.15,0,.23-.06.22-.17s-.08-.17-.31-.17h-.27v-.6h.65l0,.17h-.48v.26h.11C155,238.32,155.18,238.46,155.2,238.65Z" style="fill: rgb(255, 255, 255); transform-origin: 154.78px 238.45px;" id="elun5bqwri3r" class="animable"></path><path d="M155.3,238.44c0-.36.14-.57.41-.57a.55.55,0,0,1,.51.57c0,.36-.15.57-.41.57S155.33,238.8,155.3,238.44Zm.71,0c0-.27-.14-.39-.29-.39s-.24.12-.22.39.14.39.29.39S156,238.71,156,238.44Z" style="fill: rgb(255, 255, 255); transform-origin: 155.76px 238.44px;" id="elajy70sz74ck" class="animable"></path><path d="M225.78,240.09h-3.33l-.3-3.34h3.34Zm-2.83-.56h2.23L225,237.3h-2.23Z" style="fill: rgb(255, 255, 255); transform-origin: 223.965px 238.42px;" id="el3rgei7fhu7t" class="animable"></path><polygon points="187.35 237.84 157.28 237.84 157.38 238.99 187.45 238.99 187.35 237.84" style="fill: rgb(38, 50, 56); transform-origin: 172.365px 238.415px;" id="elcrg9sw9w5a" class="animable"></polygon><path d="M188.45,238.38a1,1,0,0,1-1,1.06,1.19,1.19,0,0,1-1.15-1.06,1,1,0,0,1,1-1.06A1.18,1.18,0,0,1,188.45,238.38Z" style="fill: rgb(38, 50, 56); transform-origin: 187.375px 238.38px;" id="el9vpgr36nl55" class="animable"></path><path d="M188.45,238.38a1,1,0,0,1-1,1.06,1.19,1.19,0,0,1-1.15-1.06,1,1,0,0,1,1-1.06A1.18,1.18,0,0,1,188.45,238.38Z" style="fill: rgb(255, 255, 255); transform-origin: 187.375px 238.38px;" id="el893s477vnta" class="animable"></path><path d="M217.36,163.85a16.72,16.72,0,0,1,12.4,9.67c4.1,8.78,7.37,21.53,10.44,22.87s16.51-11.89,16.51-11.89-2.74-8.75,1.36-10.12,3.28-7.49,7.11-6.2,6,6.75,5.74,9.76-7.38,9.84-7.38,9.84-12.85,22.86-26,20.77-20.21-32.74-20.21-32.74S213.67,163.38,217.36,163.85Z" style="fill: rgb(238, 200, 192); transform-origin: 243.327px 186.261px;" id="elaxfuqp1m05e" class="animable"></path><g id="elzjzuprfekk"><path d="M221,187.07c2.88,7.76,5.25,13.37,10.72,18.35-5.92-9.51-5.28-26.54-5.28-26.54Z" style="opacity: 0.1; transform-origin: 226.36px 192.15px;" class="animable"></path></g><path d="M172.41,166.56a140.05,140.05,0,0,1,14.25-3.29l.16.13.25.24,2.11,1.62,5.74,3.45,4.71.74,4.56-1.11,2.92-4.06.54-2.34v-.07a42.67,42.67,0,0,1,14.88,3.33,5.06,5.06,0,0,1,2.92,4.3,151.15,151.15,0,0,0,2,16.1c1.9,11.22-3.92,36.33-6.18,45.38A5.1,5.1,0,0,1,217,234.8a150.27,150.27,0,0,1-38.85.25,5.1,5.1,0,0,1-4.44-5c-.16-14.37-3.67-46.47-5-58A5.12,5.12,0,0,1,172.41,166.56Z" style="fill: rgb(64, 123, 255); transform-origin: 198.252px 199.029px;" id="el81xgpd729wm" class="animable"></path><path d="M172.41,166.56a140.05,140.05,0,0,1,14.25-3.29l.16.13.25.24,2.11,1.62,5.74,3.45,4.71.74,4.56-1.11,2.92-4.06.54-2.34v-.07a42.67,42.67,0,0,1,14.88,3.33,5.06,5.06,0,0,1,2.92,4.3,151.15,151.15,0,0,0,2,16.1c1.9,11.22-3.92,36.33-6.18,45.38A5.1,5.1,0,0,1,217,234.8a150.27,150.27,0,0,1-38.85.25,5.1,5.1,0,0,1-4.44-5c-.16-14.37-3.67-46.47-5-58A5.12,5.12,0,0,1,172.41,166.56Z" style="fill: rgb(38, 50, 56); transform-origin: 198.252px 199.029px;" id="elm3pjdoxsaka" class="animable"></path><path d="M187.08,126c-1.87,5.44-5,11.36-3.64,16.95s7.39,10.78,12.85,12.59c6.33,2.11,13.7,4.39,18.39-.37,2.32-2.35,1-7.09-1.16-9.6a8.17,8.17,0,0,0-9-2.22,22.33,22.33,0,0,0-.54-8.56,14.05,14.05,0,0,0-5.86-9C195,123.79,188.29,122.51,187.08,126Z" style="fill: rgb(38, 50, 56); transform-origin: 199.505px 140.898px;" id="elu85y3akt33" class="animable"></path><path d="M189.08,162.86c3.71-3.9,2.22-21.4,2.22-21.4l10.86,7.37s.64,10.83,3.23,12.92c.61.49,1.51.07,2.23.12l-.66,2.76-2,3.42-2.78,2h-4.11L194.36,169,190.15,166l-3.44-2.77C187.51,163.12,188.54,163.42,189.08,162.86Z" style="fill: rgb(238, 200, 192); transform-origin: 197.165px 155.755px;" id="elhcw7nx7pege" class="animable"></path><g id="elp8e11jyy58"><path d="M203.11,156.08c-7.14-.81-10.42-4.52-11.91-7.45l.31-2.92,10.85,7.37Z" style="opacity: 0.1; transform-origin: 197.155px 150.895px;" class="animable"></path></g><path d="M187.05,134.47c2.29,9,3.07,12.87,8.56,16.67,8.27,5.73,18.84.93,19.29-8.57.4-8.57-3.42-21.92-13-23.79a12.68,12.68,0,0,0-14.81,15.69Z" style="fill: rgb(238, 200, 192); transform-origin: 200.795px 136.065px;" id="elxw9gxrb8x1" class="animable"></path><path d="M202,134.1c.15.74.65,1.27,1.13,1.18s.77-.77.64-1.51-.66-1.27-1.14-1.19S201.94,133.39,202,134.1Z" style="fill: rgb(38, 50, 56); transform-origin: 202.896px 133.931px;" id="elp9zvygcxlm" class="animable"></path><path d="M210.43,132.52c.14.76.65,1.27,1.13,1.19s.77-.78.63-1.52-.65-1.27-1.13-1.17S210.29,131.78,210.43,132.52Z" style="fill: rgb(38, 50, 56); transform-origin: 211.31px 132.363px;" id="elhvw38qlrrna" class="animable"></path><path d="M210.85,131.1l1.68-.85S211.89,131.82,210.85,131.1Z" style="fill: rgb(38, 50, 56); transform-origin: 211.69px 130.769px;" id="el30uh2ns6mk2" class="animable"></path><path d="M208.09,134.36a20.66,20.66,0,0,0,3.56,4.24,3.31,3.31,0,0,1-2.56,1Z" style="fill: rgb(237, 137, 62); transform-origin: 209.87px 136.983px;" id="elvmj24mzugq" class="animable"></path><path d="M198.35,133.05a.43.43,0,0,0,.41-.32,5.22,5.22,0,0,1,3.08-2.85.45.45,0,0,0,.28-.57.43.43,0,0,0-.55-.28h0a6,6,0,0,0-3.65,3.46.44.44,0,0,0,.3.54h0A.32.32,0,0,0,198.35,133.05Z" style="fill: rgb(38, 50, 56); transform-origin: 200.024px 131.029px;" id="el6p6opvr5n1b" class="animable"></path><path d="M212.21,128.18a.49.49,0,0,0,.39-.24.45.45,0,0,0-.18-.6,4.35,4.35,0,0,0-4.1-.18.42.42,0,0,0-.19.56l0,0a.42.42,0,0,0,.59.18h0a3.55,3.55,0,0,1,3.2.19A.58.58,0,0,0,212.21,128.18Z" style="fill: rgb(38, 50, 56); transform-origin: 210.369px 127.456px;" id="el38jwjcr801t" class="animable"></path><path d="M202.46,132.74l1.69-.85S203.5,133.4,202.46,132.74Z" style="fill: rgb(38, 50, 56); transform-origin: 203.305px 132.398px;" id="eluwf5u27rqus" class="animable"></path><path d="M215.76,116.78a7.23,7.23,0,0,1,2.88,7.51c-.34,1.24-1.07,2.41-1.13,3.7a2.67,2.67,0,0,0,2.44,2.8,16.83,16.83,0,0,1-6.17-.09c-2-.53-3.87-2-3.94-3.86a19.44,19.44,0,0,1,.23-2,2,2,0,0,0-.77-1.84c-1.11-.73-2.58.06-3.92.23-2.45.33-4.87-1.94-4.57-4.09S207,110.22,215.76,116.78Z" style="fill: rgb(38, 50, 56); transform-origin: 210.367px 122.51px;" id="el2wv08wtadxx" class="animable"></path><path d="M206.68,113.68c3.28,1.81,12.07,10.88-11.65,9.39,0,0,.05,14.83-7.4,16.84l-19.52-3.22S175.87,96.66,206.68,113.68Z" style="fill: rgb(38, 50, 56); transform-origin: 189.56px 124.688px;" id="el6r30x722kke" class="animable"></path><path d="M170.69,127.69c-1.87,5.43-5,11.36-3.64,16.95s7.39,10.77,12.85,12.59c6.33,2.11,13.7,4.39,18.39-.37,2.31-2.36,1-7.09-1.16-9.61a8.17,8.17,0,0,0-9-2.21,22.32,22.32,0,0,0-.54-8.56,14.08,14.08,0,0,0-5.86-9.06C178.58,125.47,171.9,124.2,170.69,127.69Z" style="fill: rgb(38, 50, 56); transform-origin: 183.113px 142.583px;" id="elfqbc22g6a5r" class="animable"></path><path d="M185.9,142a6.74,6.74,0,0,0,4,3.1c2.27.58,3.37-1.46,2.7-3.59-.62-1.91-2.53-4.52-4.79-4.2a3,3,0,0,0-2.44,3.48A3.14,3.14,0,0,0,185.9,142Z" style="fill: rgb(238, 200, 192); transform-origin: 189.059px 141.242px;" id="el1c5fnftqz8g" class="animable"></path><path d="M209.87,142.18a9.13,9.13,0,0,1-7.39,0s-.3,4.55,5.1,4.18c.57,0,2.29-.3,2.29-.3A9.55,9.55,0,0,1,209.87,142.18Z" style="fill: rgb(38, 50, 56); transform-origin: 206.173px 144.281px;" id="el09wprjc1szrd" class="animable"></path><path d="M202.72,143.75a4.72,4.72,0,0,1-.24-1.57,9.64,9.64,0,0,0,6.14.46v1.49S205.05,144.76,202.72,143.75Z" style="fill: rgb(255, 255, 255); transform-origin: 205.55px 143.252px;" id="eltgvoadw3d9j" class="animable"></path><path d="M203.23,144.75a11.37,11.37,0,0,1,1.19-.07,7.91,7.91,0,0,1,4.81,1.47c-.55.08-1.31.18-1.65.21C205.17,146.52,203.9,145.71,203.23,144.75Z" style="fill: rgb(193, 59, 55); transform-origin: 206.23px 145.529px;" id="elmin5mlwe3mj" class="animable"></path><path d="M209.7,161.87s-2.54-.86-3.56,0c0,0,.19,6.59-5.13,7.42s-13.49-6.38-13.49-6.38a4.91,4.91,0,0,0-3.56.56l20.91,22.79C213.26,177.44,209.7,161.87,209.7,161.87Z" style="fill: rgb(64, 123, 255); transform-origin: 197.205px 173.874px;" id="elg99z48rc3m" class="animable"></path><path d="M171.41,188.34c-2-2.73-6.13-14.08-1.63-20.24S201.41,199,201.41,199c4.58-2.27,25.85-9.4,25.85-9.4s.71-7.43,3.84-9.24,4.57-6.57,7.23-3.75,5.78,10.64,1.68,13.6a89.91,89.91,0,0,1-8.21,5.22S215.43,207,203.54,211,179.81,199.68,171.41,188.34Z" style="fill: rgb(238, 200, 192); transform-origin: 204.874px 189.529px;" id="elc0xbbo6pova" class="animable"></path><g id="eltej09udclpo"><path d="M171.41,188.34c-2-2.73-6.13-14.08-1.63-20.24S201.41,199,201.41,199c4.58-2.27,25.85-9.4,25.85-9.4s.71-7.43,3.84-9.24,4.57-6.57,7.23-3.75,5.78,10.64,1.68,13.6a89.91,89.91,0,0,1-8.21,5.22S215.43,207,203.54,211,179.81,199.68,171.41,188.34Z" style="fill: rgb(255, 255, 255); opacity: 0.1; transform-origin: 204.874px 189.529px;" class="animable"></path></g><g id="el9p3suiu7tgv"><path d="M171.41,188.34c-2-2.73-6.13-14.08-1.63-20.24S201.41,199,201.41,199c4.58-2.27,25.85-9.4,25.85-9.4s.71-7.43,3.84-9.24,4.57-6.57,7.23-3.75,5.78,10.64,1.68,13.6a89.91,89.91,0,0,1-8.21,5.22S215.43,207,203.54,211,179.81,199.68,171.41,188.34Z" style="fill: rgb(255, 255, 255); opacity: 0.1; transform-origin: 204.874px 189.529px;" class="animable"></path></g><path d="M222.59,237.07,221.31,231s-33.25,3.45-47.44.29l-1.85,5.8Z" style="fill: rgb(38, 50, 56); transform-origin: 197.305px 234.045px;" id="elw160ic4hpa" class="animable"></path><path d="M189.83,146.75A1.81,1.81,0,1,1,188,145,1.8,1.8,0,0,1,189.83,146.75Z" style="fill: rgb(255, 255, 255); transform-origin: 188.021px 146.81px;" id="elxxpzajghmu" class="animable"></path></g><g id="freepik--character-2--inject-34" class="animable" style="transform-origin: 273.529px 276.681px;"><g id="freepik--Character--inject-34" class="animable" style="transform-origin: 316.787px 170.949px;"><path d="M302.22,162.28a27,27,0,0,1-3.88,6c1.19,1.23,3.4.77,3.4.77Z" style="fill: rgb(160, 39, 36); transform-origin: 300.28px 165.707px;" id="elttkmmkxx5ma" class="animable"></path><path d="M327.34,173.6l-6.65,5-9.08,6.75a9.22,9.22,0,0,1,.83,3.3c.29,2.52.58,4.39-5.05,5.86a3.17,3.17,0,0,0-2.42,2.45c-.24,1.49.64,3.3,5.8,4.26a23.79,23.79,0,0,0,14.65-2.27c2.21-1.07,2.23-2.39,1.34-4.62C324.09,187.91,325.54,179.86,327.34,173.6Z" style="fill: rgb(255, 139, 123); transform-origin: 316.137px 187.568px;" id="elevto37lbfz5" class="animable"></path><path d="M300.46,161.58c-.2.78,0,1.5.38,1.6s.89-.45,1.09-1.23,0-1.5-.38-1.61S300.65,160.79,300.46,161.58Z" style="fill: rgb(38, 50, 56); transform-origin: 301.195px 161.759px;" id="el8cyq8f3b51l" class="animable"></path><path d="M306.36,160.4a.5.5,0,0,1-.43-.25,4.86,4.86,0,0,0-4-2.4.5.5,0,0,1,0-1h0a5.92,5.92,0,0,1,4.88,2.9.52.52,0,0,1-.19.69A.54.54,0,0,1,306.36,160.4Z" style="fill: rgb(38, 50, 56); transform-origin: 304.151px 158.575px;" id="elqbbrpteawzq" class="animable"></path><path d="M300.41,172.64a14.62,14.62,0,0,0,6.83,11,13.46,13.46,0,0,0,4.19,1.73A12.44,12.44,0,0,0,321.86,183c5.79-4.38,6.46-10.31,8.47-20.27a14.12,14.12,0,0,0-17-16.67C303,148.54,299.51,163.27,300.41,172.64Z" style="fill: rgb(255, 139, 123); transform-origin: 315.454px 165.684px;" id="eley91cy472yt" class="animable"></path><g id="elixlvsl99b0r"><path d="M307.24,183.61a13.46,13.46,0,0,0,4.19,1.73l.18,0-.63-2S310.12,184.77,307.24,183.61Z" style="opacity: 0.2; transform-origin: 309.425px 184.34px;" class="animable"></path></g><path d="M333.23,169.9c-1.68,3.43-3.76,6.87-6.93,9-1.17.8-10.05.21-10.05.21.09-3-3.73-13.4-5.57-16.89-.58,1.43.24,3.39-.49,4.71-1-.19-18.79-6.59-10.95-19.38,5.54-9,20.4-9.82,26.57-.92a7.5,7.5,0,0,1,7.43,2.22,12.39,12.39,0,0,1,3,7.44C336.69,161,335.29,165.66,333.23,169.9Z" style="fill: rgb(38, 50, 56); transform-origin: 316.787px 159.841px;" id="el0upj9sqsqo2p" class="animable"></path></g><path d="M316.77,164.78a9.29,9.29,0,0,1-2.87,6c-2.14,2-4.82-.12-5.15-3-.3-2.57.95-6.33,3.56-7.23S317,162,316.77,164.78Z" style="fill: rgb(255, 139, 123); transform-origin: 312.747px 165.96px;" id="elbrf2orrl0yl" class="animable"></path><polygon points="230.76 389.53 221.55 385.01 228.36 362.57 239.58 368.83 230.76 389.53" style="fill: rgb(255, 139, 123); transform-origin: 230.565px 376.05px;" id="elp53lla76wwk" class="animable"></polygon><g id="elbmmegaimnyg"><polygon points="242 362.67 230.19 355.86 225.51 372.03 236.17 377.05 242 362.67" style="opacity: 0.2; isolation: isolate; transform-origin: 233.755px 366.455px;" class="animable"></polygon></g><path d="M221,383.22l10.55,4.87a.86.86,0,0,1,.41,1.09l-3.45,10.25a1.91,1.91,0,0,1-2.45,1.24c-3.64-1.77-5.31-2.83-9.94-5-2.86-1.31-9.37-4.42-13.43-5.89s-2.38-6.24-.52-6.05c8.37.89,13.29.69,16.93-.58A2.54,2.54,0,0,1,221,383.22Z" style="fill: rgb(38, 50, 56); transform-origin: 216.106px 391.887px;" id="eldwvig1mcjt9" class="animable"></path><path d="M215.57,383.92a13.11,13.11,0,0,0,2.61.72.21.21,0,0,0,.23-.1.24.24,0,0,0,.06-.25c-.21-.34-2.13-3.3-3.47-3.35a.85.85,0,0,0-.77.4,1.33,1.33,0,0,0-.24,1.34A2.8,2.8,0,0,0,215.57,383.92Zm2.2.16c-1.83-.44-3.07-1-3.32-1.6a.86.86,0,0,1,.2-.84.45.45,0,0,1,.38-.22C215.73,381.44,217,382.91,217.77,384.08Z" style="fill: rgb(64, 123, 255); transform-origin: 216.194px 382.792px;" id="el5okjg1bsnnn" class="animable"></path><path d="M218.19,384.64l.11,0a.29.29,0,0,0,.2-.14c0-.12,1.43-2.75.86-4.07a1.18,1.18,0,0,0-.81-.71.91.91,0,0,0-1.08.33c-.66.94-.08,3.52.62,4.48A.16.16,0,0,0,218.19,384.64Zm.34-4.39a.7.7,0,0,1,.39.4,5.33,5.33,0,0,1-.66,3.27,4.92,4.92,0,0,1-.4-3.57c0-.13.21-.24.55-.14Z" style="fill: rgb(64, 123, 255); transform-origin: 218.337px 382.149px;" id="elndndnbo21xh" class="animable"></path><path d="M300.92,273.54s-54.28-9.34-61.11,20.35c-5.27,20.79-7.82,29.25-14.53,75.35l14.33,3.23s23.1-47.22,24.45-67.3c16.2,2.74,53.06,10.42,60.91-3.29a65.74,65.74,0,0,0,7.75-22.52Z" style="fill: rgb(64, 123, 255); transform-origin: 279px 322.309px;" id="elmhgwfs748le" class="animable"></path><g id="el8jr8v022llb"><g style="opacity: 0.3; transform-origin: 279px 322.309px;" class="animable"><path d="M300.92,273.54s-54.28-9.34-61.11,20.35c-5.27,20.79-7.82,29.25-14.53,75.35l14.33,3.23s23.1-47.22,24.45-67.3c16.2,2.74,53.06,10.42,60.91-3.29a65.74,65.74,0,0,0,7.75-22.52Z" id="elbmmzq3cib8r" class="animable" style="transform-origin: 279px 322.309px;"></path></g></g><polygon points="241.44 375.66 223.09 369.24 224.81 360.93 243.63 368.58 241.44 375.66" style="fill: rgb(64, 123, 255); transform-origin: 233.36px 368.295px;" id="elds4wfc4iwqc" class="animable"></polygon><polygon points="192.77 386.21 183.09 380.84 192.71 362.25 204.64 367.1 192.77 386.21" style="fill: rgb(255, 139, 123); transform-origin: 193.865px 374.23px;" id="eltmu67clq91d" class="animable"></polygon><g id="elqk3qrv5sp5"><polygon points="207.97 361.38 197.34 352.84 190.25 368.11 200.01 374.7 207.97 361.38" style="opacity: 0.2; isolation: isolate; transform-origin: 199.11px 363.77px;" class="animable"></polygon></g><path d="M184.08,378.49l9.69,6.42A.85.85,0,0,1,194,386l-5,9.61a1.9,1.9,0,0,1-2.61.85c-3.33-2.3-4.81-3.6-9.07-6.43-2.62-1.73-8.58-5.79-12.37-7.87s-1.4-6.52.41-6.05c8.14,2.15,13,2.71,16.82,2A2.54,2.54,0,0,1,184.08,378.49Z" style="fill: rgb(38, 50, 56); transform-origin: 178.521px 386.381px;" id="el5fat4s9t5j5" class="animable"></path><path d="M178.61,378.35a13,13,0,0,0,2.47,1.1.2.2,0,0,0,.24-.06.23.23,0,0,0,.1-.23c-.15-.38-1.6-3.59-2.92-3.84a.87.87,0,0,0-.83.27,1.39,1.39,0,0,0-.44,1.29A2.87,2.87,0,0,0,178.61,378.35Zm2.15.49c-1.74-.72-2.88-1.42-3-2.08a.87.87,0,0,1,.33-.81.44.44,0,0,1,.4-.15C179.15,375.92,180.14,377.56,180.76,378.84Z" style="fill: rgb(64, 123, 255); transform-origin: 179.315px 377.384px;" id="ell3h9k901pih" class="animable"></path><path d="M181.09,379.46l.1,0a.26.26,0,0,0,.22-.1c.05-.11,1.83-2.5,1.47-3.89a1.18,1.18,0,0,0-.69-.83.91.91,0,0,0-1.12.16c-.79.83-.62,3.46-.07,4.52A.18.18,0,0,0,181.09,379.46Zm1-4.29a.71.71,0,0,1,.33.46,5.23,5.23,0,0,1-1.16,3.12,4.87,4.87,0,0,1,.16-3.58c.05-.12.25-.2.57-.06Z" style="fill: rgb(64, 123, 255); transform-origin: 181.73px 376.988px;" id="ely7rdho778j" class="animable"></path><path d="M283.81,270.65c-.38-.07-59.51-16.06-69.31,17.44-13.44,40.77-23.41,75.38-23.41,75.38l11.6,8.41s29.59-40.94,34-69c18.48-2.08,62.64,14.11,70.49.41,6.43-11.2,6.74-27.54,6.74-27.54Z" style="fill: rgb(64, 123, 255); transform-origin: 252.505px 319.328px;" id="el44gah44ch7k" class="animable"></path><g id="el9zrp7tmm1x5"><path d="M283.81,270.65c-.38-.07-59.51-16.06-69.31,17.44-13.44,40.77-23.41,75.38-23.41,75.38l11.6,8.41s29.59-40.94,34-69c18.48-2.08,62.64,14.11,70.49.41,6.43-11.2,6.74-27.54,6.74-27.54Z" style="opacity: 0.3; transform-origin: 252.505px 319.328px;" class="animable"></path></g><polygon points="204.41 374.04 188.72 363.54 191.26 356.82 208.12 366.02 204.41 374.04" style="fill: rgb(64, 123, 255); transform-origin: 198.42px 365.43px;" id="elo83br5qbevn" class="animable"></polygon><path d="M338.8,202.24c-1,4-2.21,7.95-3.52,11.9S332.47,222,330.71,226a64,64,0,0,1-6.61,11.68,27.09,27.09,0,0,1-5.45,5.66,17.1,17.1,0,0,1-4.2,2.38,13.87,13.87,0,0,1-2.67.72l-.73.12c-.38,0-.8.06-1.17.06a9.74,9.74,0,0,1-1.87-.21,13,13,0,0,1-2.65-.85,15.7,15.7,0,0,1-2-1,30.82,30.82,0,0,1-3.06-2.17C298.6,241,292.26,231,287.75,224l5.37-4.48c5.82,5.27,11.73,10.69,17.65,15.32,1.52,1.08-4.89-3.25-3.46-2.33a16.55,16.55,0,0,0,2,1.07c.57.26,1.13.39,1,.29a1.21,1.21,0,0,0-.38-.06,3.09,3.09,0,0,0-.43,0h0a1.39,1.39,0,0,0,.21-.1,5.69,5.69,0,0,0,.93-.68,17,17,0,0,0,2.65-3.15,54.66,54.66,0,0,0,4.76-9.41c1.46-3.48,2.65-7,3.8-10.69s2.22-7.37,3.19-11.15S339.84,198.22,338.8,202.24Z" style="fill: rgb(64, 123, 255); transform-origin: 313.303px 221.801px;" id="elvmk69wo8skf" class="animable"></path><g id="elapdsq507wba"><path d="M338.8,202.24c-1,4-2.21,7.95-3.52,11.9S332.47,222,330.71,226a64,64,0,0,1-6.61,11.68,27.09,27.09,0,0,1-5.45,5.66,17.1,17.1,0,0,1-4.2,2.38,13.87,13.87,0,0,1-2.67.72l-.73.12c-.38,0-.8.06-1.17.06a9.74,9.74,0,0,1-1.87-.21,13,13,0,0,1-2.65-.85,15.7,15.7,0,0,1-2-1,30.82,30.82,0,0,1-3.06-2.17C298.6,241,292.26,231,287.75,224l5.37-4.48c5.82,5.27,11.73,10.69,17.65,15.32,1.52,1.08-4.89-3.25-3.46-2.33a16.55,16.55,0,0,0,2,1.07c.57.26,1.13.39,1,.29a1.21,1.21,0,0,0-.38-.06,3.09,3.09,0,0,0-.43,0h0a1.39,1.39,0,0,0,.21-.1,5.69,5.69,0,0,0,.93-.68,17,17,0,0,0,2.65-3.15,54.66,54.66,0,0,0,4.76-9.41c1.46-3.48,2.65-7,3.8-10.69s2.22-7.37,3.19-11.15S339.84,198.22,338.8,202.24Z" style="fill: rgb(255, 255, 255); opacity: 0.6; transform-origin: 313.303px 221.801px;" class="animable"></path></g><path d="M293.52,220.12l-5.13-10.89-9.75,5.57s6.31,10.11,9.86,9.11Z" style="fill: rgb(255, 139, 123); transform-origin: 286.08px 216.605px;" id="ele0lxri186lr" class="animable"></path><path d="M280.43,206.65,276,208.5a1.72,1.72,0,0,0-.59,2.79l3.31,3.46,9.75-5.57-6.73-2.54A1.74,1.74,0,0,0,280.43,206.65Z" style="fill: rgb(255, 139, 123); transform-origin: 281.698px 210.633px;" id="ell2qutqsl58" class="animable"></path><path d="M243.58,240.16l-10.5-1.28-3.49,11s12,.3,14-2.94Z" style="fill: rgb(255, 139, 123); transform-origin: 236.59px 244.384px;" id="elad3dpmpj00d" class="animable"></path><path d="M225.25,242.63l-2,4.19a2,2,0,0,0,1.66,2.8l4.65.29,3.49-11-6.79,2.76A2,2,0,0,0,225.25,242.63Z" style="fill: rgb(255, 139, 123); transform-origin: 228.065px 244.41px;" id="el5mbcxdbsx5" class="animable"></path><path d="M342.14,201.66c-.47-2.44-4.1-5.41-6.56-5.82l-1.63-.28a90.71,90.71,0,0,0-9.94-1,178.63,178.63,0,0,0-20,0c-3.09.29-6.12.79-8.53,1.26h-.09a6.26,6.26,0,0,0-4.94,5.94c-.23,7.55-.81,22.89-2.17,38-1.05,11.81-3.38,23.32-4.43,31.32l48.92,8.26c3.3-9.28,4.44-17.67,7.49-34.91C342.05,234.06,344.09,211.7,342.14,201.66Z" style="fill: rgb(64, 123, 255); transform-origin: 313.392px 236.81px;" id="elr7yk67vmqzg" class="animable"></path><g id="elolx8u3rgq7l"><path d="M342.14,201.66c-.47-2.44-4.1-5.41-6.56-5.82l-1.63-.28a90.71,90.71,0,0,0-9.94-1,178.63,178.63,0,0,0-20,0c-3.09.29-6.12.79-8.53,1.26h-.09a6.26,6.26,0,0,0-4.94,5.94c-.23,7.55-.81,22.89-2.17,38-1.05,11.81-3.38,23.32-4.43,31.32l48.92,8.26c3.3-9.28,4.44-17.67,7.49-34.91C342.05,234.06,344.09,211.7,342.14,201.66Z" style="fill: rgb(255, 255, 255); opacity: 0.6; transform-origin: 313.392px 236.81px;" class="animable"></path></g><path d="M295.23,197a7.8,7.8,0,0,1,4,10.33c-4,9-10.7,23.19-13.58,28.17-1.09,1.76-2.19,3.52-3.42,5.28-.61.89-1.3,1.76-2,2.67-.4.45-.72.87-1.19,1.35l-.67.7-.38.39a9.87,9.87,0,0,1-3.73,2.17,17.09,17.09,0,0,1-2.24.57,24.48,24.48,0,0,1-3.73.31c-2.16,0-17,1.33-24.58-1.32l-.4-8.17c7.56.6,20.75-3.49,22.45-3.67a13.91,13.91,0,0,0,2-.41,3,3,0,0,0,.62-.26c.07,0,0-.08-.31.13a1.83,1.83,0,0,0-.31.24l.11-.14.31-.37c.21-.22.45-.58.68-.87.45-.62.91-1.29,1.37-2,.91-1.42,1.79-3,2.66-4.59,1.73-3.19,3.33-6.57,4.89-10,1.1-2.42,4.36-9.78,7.13-16.37A7.81,7.81,0,0,1,295.23,197Z" style="fill: rgb(64, 123, 255); transform-origin: 271.609px 222.812px;" id="elgri9drz7x9v" class="animable"></path><g id="elr3n2ji6pphn"><path d="M288.6,228.79c.14,4.47.08,3,.24,7.71,13.06-18.07,9.7-30.62,9.7-30.62Z" style="opacity: 0.2; isolation: isolate; transform-origin: 293.764px 221.19px;" class="animable"></path></g><g id="el4iu6cdh5m1a"><path d="M295.23,197a7.8,7.8,0,0,1,4,10.33c-4,9-10.7,23.19-13.58,28.17-1.09,1.76-2.19,3.52-3.42,5.28-.61.89-1.3,1.76-2,2.67-.4.45-.72.87-1.19,1.35l-.67.7-.38.39a9.87,9.87,0,0,1-3.73,2.17,17.09,17.09,0,0,1-2.24.57,24.48,24.48,0,0,1-3.73.31c-2.16,0-17,1.33-24.58-1.32l-.4-8.17c7.56.6,20.75-3.49,22.45-3.67a13.91,13.91,0,0,0,2-.41,3,3,0,0,0,.62-.26c.07,0,0-.08-.31.13a1.83,1.83,0,0,0-.31.24l.11-.14.31-.37c.21-.22.45-.58.68-.87.45-.62.91-1.29,1.37-2,.91-1.42,1.79-3,2.66-4.59,1.73-3.19,3.33-6.57,4.89-10,1.1-2.42,4.36-9.78,7.13-16.37A7.81,7.81,0,0,1,295.23,197Z" style="fill: rgb(255, 255, 255); opacity: 0.6; transform-origin: 271.609px 222.812px;" class="animable"></path></g><path d="M309.92,162a7.86,7.86,0,0,0-2.65,5.46c-.13,2.77,2.56,3.52,4.89,2.22,2.12-1.18,4.71-4,3.73-6.56S311.88,160.26,309.92,162Z" style="fill: rgb(250, 178, 123); transform-origin: 311.685px 165.601px;" id="elouuoakaobee" class="animable"></path><path d="M318.82,166.32c-.2,4.54-2.94,8.11-7.48,7.91s-7-4-6.76-8.54,2.95-8.11,7.49-7.91S319,161.78,318.82,166.32Z" style="fill: rgb(64, 123, 255); transform-origin: 311.697px 166.005px;" id="elpqpv1i4pbwp" class="animable"></path><g id="elh23vk2hk44a"><path d="M318.82,166.32c-.2,4.54-2.94,8.11-7.48,7.91s-7-4-6.76-8.54,2.95-8.11,7.49-7.91S319,161.78,318.82,166.32Z" style="fill: rgb(255, 255, 255); opacity: 0.7; transform-origin: 311.697px 166.005px;" class="animable"></path></g><path d="M316.73,166.23c-.15,3.21-2.08,5.72-5.29,5.58s-4.91-2.82-4.76-6,2.07-5.72,5.28-5.58S316.87,163,316.73,166.23Z" style="fill: rgb(64, 123, 255); transform-origin: 311.704px 166.02px;" id="elkqgcdw0vc6" class="animable"></path><g id="elbsbbz7sue"><path d="M316.73,166.23c-.15,3.21-2.08,5.72-5.29,5.58s-4.91-2.82-4.76-6,2.07-5.72,5.28-5.58S316.87,163,316.73,166.23Z" style="fill: rgb(255, 255, 255); opacity: 0.3; transform-origin: 311.704px 166.02px;" class="animable"></path></g><path d="M311.47,157c.93-3.82,4.61-14,12.24-15.42a2.16,2.16,0,0,1,2,.72l.91,1a2.19,2.19,0,0,1-.6,3.35,23.6,23.6,0,0,0-10.7,11.53,1.6,1.6,0,0,1-1.88.92l-.85-.23A1.59,1.59,0,0,1,311.47,157Z" style="fill: rgb(64, 123, 255); transform-origin: 319.293px 150.351px;" id="el92a0133ehis" class="animable"></path><g id="el2113rvioaoj"><path d="M311.47,157c.93-3.82,4.61-14,12.24-15.42a2.16,2.16,0,0,1,2,.72l.91,1a2.19,2.19,0,0,1-.6,3.35,23.6,23.6,0,0,0-10.7,11.53,1.6,1.6,0,0,1-1.88.92l-.85-.23A1.59,1.59,0,0,1,311.47,157Z" style="fill: rgb(255, 255, 255); opacity: 0.2; transform-origin: 319.293px 150.351px;" class="animable"></path></g><rect x="251.26" y="268.75" width="6.5" height="27.74" style="fill: rgb(38, 50, 56); transform-origin: 254.51px 282.62px;" id="el4j8wb4idxe" class="animable"></rect><rect x="251.26" y="268.75" width="6.5" height="27.74" style="fill: rgb(38, 50, 56); transform-origin: 254.51px 282.62px;" id="elo5u5kjld3p" class="animable"></rect><path d="M276.59,277.22a67,67,0,0,0-44.19,0,6.27,6.27,0,0,1-7.78-3h0c-1.33-2.8.45-6.43,4.06-7.69a78.21,78.21,0,0,1,51.61,0c3.6,1.25,5.38,4.89,4.06,7.69h0A6.3,6.3,0,0,1,276.59,277.22Z" style="fill: rgb(38, 50, 56); transform-origin: 254.482px 269.885px;" id="el2o84z4p4z2n" class="animable"></path><g id="elmg4comk8ix"><path d="M276.59,277.22a67,67,0,0,0-44.19,0,6.27,6.27,0,0,1-7.78-3h0c-1.33-2.8.45-6.43,4.06-7.69a78.21,78.21,0,0,1,51.61,0c3.6,1.25,5.38,4.89,4.06,7.69h0A6.3,6.3,0,0,1,276.59,277.22Z" style="fill: rgb(38, 50, 56); opacity: 0.4; transform-origin: 254.482px 269.885px;" class="animable"></path></g><path d="M269.81,407.94a5.06,5.06,0,1,1-5.06-5.06,5.06,5.06,0,0,1,5.06,5.06Z" style="fill: rgb(38, 50, 56); transform-origin: 264.75px 407.94px;" id="el78wwqgibu0c" class="animable"></path><path d="M344.11,407.94a5.06,5.06,0,1,0,5.05-5.06,5,5,0,0,0-5.05,5.06Z" style="fill: rgb(38, 50, 56); transform-origin: 349.17px 407.94px;" id="el0vzyi8tvsf5k" class="animable"></path><path d="M300.29,406.32a5.06,5.06,0,1,0,5-5.06,5.06,5.06,0,0,0-5,5.06Z" style="fill: rgb(38, 50, 56); transform-origin: 305.35px 406.32px;" id="eldcfcxqfbpvw" class="animable"></path><path d="M360.19,401.14a2.47,2.47,0,0,1-2.5,2l-52.75-.72-49.41,1.12a2.46,2.46,0,0,1-.54-4.87l27-5.24a46.57,46.57,0,0,1,8.49-.79h29a46.3,46.3,0,0,1,8.48.79l30.32,4.86A2.45,2.45,0,0,1,360.19,401.14Z" style="fill: rgb(38, 50, 56); transform-origin: 306.626px 398.09px;" id="elrgbn6jtrsih" class="animable"></path><rect x="295.96" y="348.6" width="17.94" height="51.65" style="fill: rgb(38, 50, 56); transform-origin: 304.93px 374.425px;" id="elmocxjjh2gwm" class="animable"></rect><rect x="298.54" y="315.88" width="12.79" height="32.98" style="fill: rgb(38, 50, 56); transform-origin: 304.935px 332.37px;" id="elyen62ti8l3" class="animable"></rect><g id="eln82zwxjvsf"><polygon points="298.54 321.99 311.33 325.21 311.33 315.88 298.54 315.88 298.54 321.99" style="opacity: 0.2; isolation: isolate; transform-origin: 304.935px 320.545px;" class="animable"></polygon></g><path d="M299.79,292.41v23.32h-68.1a8.36,8.36,0,0,1-7.2-12.64,21.76,21.76,0,0,1,18.71-10.68Z" style="fill: rgb(64, 123, 255); transform-origin: 261.551px 304.07px;" id="el4okr3n0wql7" class="animable"></path><g id="el05on7oshsn46"><path d="M299.79,292.41v23.32h-68.1a8.36,8.36,0,0,1-7.2-12.64,21.76,21.76,0,0,1,18.71-10.68Z" style="fill: rgb(255, 255, 255); opacity: 0.2; transform-origin: 261.551px 304.07px;" class="animable"></path></g><path d="M313.5,206.05a14.57,14.57,0,0,0-.33,2.28l-7.49,107H295.35l7.48-107a2.13,2.13,0,0,1,0-.25Z" style="fill: rgb(64, 123, 255); transform-origin: 304.425px 260.69px;" id="elor23ebj5al" class="animable"></path><g id="ellkq6snuvbnf"><path d="M313.5,206.05a14.57,14.57,0,0,0-.33,2.28l-7.49,107H295.35l7.48-107a2.13,2.13,0,0,1,0-.25Z" style="fill: rgb(255, 255, 255); opacity: 0.2; transform-origin: 304.425px 260.69px;" class="animable"></path></g><path d="M361,315.75v.12h-1.74A12.5,12.5,0,0,0,361,315.75Z" style="fill: rgb(38, 50, 56); transform-origin: 360.13px 315.81px;" id="elcuw9x1u19x5" class="animable"></path><path d="M384,205.37l.12-12.72a14.09,14.09,0,0,0-3.52-9.58l-7.51-8.47-2.69-21.19a6.44,6.44,0,0,0-6.5-5.68H345.24a7.67,7.67,0,0,0-7,4.75l-9.41,22.79-15.56,9.19a16.63,16.63,0,0,0-7.81,10.69l-2.84,13,.22,0,10.64-2a14.57,14.57,0,0,0-.33,2.28l-7.49,107h58.57a12.65,12.65,0,0,0,1.75-.12h0a13.2,13.2,0,0,0,11.16-12l6.7-95.89a15.74,15.74,0,0,0,0-2.06Zm-48.95-8.09L316.84,199l-.79.08,2.52-8.28L331.08,185l4.17-1.94.66,1.94.11.33.61,1.79Zm35.78.22h0l-2.23-.58c0-.7-.08-1.42-.12-2.13-.23-4-.42-7.7-.42-7.7l.27-1.31.56-2.75,8.08,7.78v8.28Z" style="fill: rgb(64, 123, 255); transform-origin: 343.371px 231.58px;" id="elvaw8fqsxh4f" class="animable"></path></g><defs>     <filter id="active" height="200%">         <feMorphology in="SourceAlpha" result="DILATED" operator="dilate" radius="2"></feMorphology>                <feFlood flood-color="#32DFEC" flood-opacity="1" result="PINK"></feFlood>        <feComposite in="PINK" in2="DILATED" operator="in" result="OUTLINE"></feComposite>        <feMerge>            <feMergeNode in="OUTLINE"></feMergeNode>            <feMergeNode in="SourceGraphic"></feMergeNode>        </feMerge>    </filter>    <filter id="hover" height="200%">        <feMorphology in="SourceAlpha" result="DILATED" operator="dilate" radius="2"></feMorphology>                <feFlood flood-color="#ff0000" flood-opacity="0.5" result="PINK"></feFlood>        <feComposite in="PINK" in2="DILATED" operator="in" result="OUTLINE"></feComposite>        <feMerge>            <feMergeNode in="OUTLINE"></feMergeNode>            <feMergeNode in="SourceGraphic"></feMergeNode>        </feMerge>            <feColorMatrix type="matrix" values="0   0   0   0   0                0   1   0   0   0                0   0   0   0   0                0   0   0   1   0 "></feColorMatrix>    </filter></defs></svg>